<svg width="168" height="26" viewBox="0 0 168 26" fill="none" xmlns="http://www.w3.org/2000/svg">
<g clip-path="url(#clip0_1817_3722)">
<path d="M34.7672 19.2322H22.9655C23.0547 20.6885 23.5544 21.8277 24.4602 22.6452C25.366 23.4627 26.4681 23.8737 27.762 23.8737C28.824 23.8737 29.7074 23.628 30.4169 23.1322C31.1263 22.6363 31.626 21.9751 31.9116 21.1487H34.5531C34.156 22.5693 33.3662 23.7263 32.1838 24.6153C31.0014 25.5043 29.5245 25.9511 27.7665 25.9511C26.3654 25.9511 25.1117 25.6383 24.0096 25.0084C22.903 24.3785 22.0374 23.4851 21.4083 22.3236C20.7791 21.1621 20.4668 19.8174 20.4668 18.2895C20.4668 16.7617 20.7702 15.4215 21.3815 14.2689C21.9928 13.1163 22.8495 12.2318 23.956 11.6109C25.0626 10.9899 26.3298 10.6816 27.7665 10.6816C29.2032 10.6816 30.4079 10.9899 31.4833 11.5974C32.5586 12.2095 33.393 13.0493 33.9775 14.1215C34.562 15.1937 34.852 16.3999 34.852 17.749C34.852 18.2181 34.8252 18.7095 34.7717 19.2322H34.7672ZM31.6974 14.8229C31.2825 14.1483 30.7247 13.6346 30.0153 13.2861C29.3058 12.9377 28.5206 12.759 27.6594 12.759C26.419 12.759 25.366 13.1566 24.4914 13.9473C23.6169 14.738 23.1216 15.837 22.9967 17.2397H32.3176C32.3176 16.306 32.1124 15.4974 31.6974 14.8273V14.8229Z" fill="#4B095D"/>
<path d="M40.0189 5.74072V25.7053H37.5649V5.74072H40.0189Z" fill="#4B095D"/>
<path d="M45.6231 5.74072V25.7053H43.169V5.74072H45.6231Z" fill="#4B095D"/>
<path d="M51.9679 25.0036C50.8435 24.3737 49.9645 23.4802 49.3265 22.3187C48.6884 21.1572 48.3716 19.8125 48.3716 18.2847C48.3716 16.7568 48.6973 15.439 49.3532 14.2774C50.0091 13.1159 50.9015 12.2269 52.0348 11.606C53.1682 10.985 54.4309 10.6768 55.8319 10.6768C57.233 10.6768 58.5002 10.985 59.6335 11.606C60.7668 12.2269 61.6592 13.1115 62.3151 14.264C62.971 15.4166 63.2967 16.7568 63.2967 18.2847C63.2967 19.8125 62.9621 21.1572 62.2883 22.3187C61.6146 23.4802 60.7043 24.3737 59.5532 25.0036C58.402 25.6335 57.1303 25.9462 55.7293 25.9462C54.3283 25.9462 53.0923 25.6335 51.9724 25.0036H51.9679ZM58.2057 23.1675C58.9776 22.752 59.6022 22.1355 60.0797 21.3046C60.5571 20.4781 60.7936 19.4685 60.7936 18.2847C60.7936 17.1008 60.5616 16.0912 60.0931 15.2647C59.6246 14.4383 59.0133 13.8218 58.2592 13.4152C57.5052 13.0087 56.6886 12.8077 55.8096 12.8077C54.9306 12.8077 54.0873 13.0087 53.3422 13.4152C52.597 13.8218 51.9991 14.4383 51.5485 15.2647C51.0978 16.0912 50.8747 17.1008 50.8747 18.2847C50.8747 19.4685 51.0934 20.5049 51.5351 21.3314C51.9768 22.1579 52.5613 22.7744 53.302 23.1809C54.0427 23.5874 54.8458 23.7884 55.7293 23.7884C56.6128 23.7884 57.4338 23.5829 58.2101 23.1675H58.2057Z" fill="#4B095D"/>
<path d="M86.3336 11.3696C87.2304 11.8476 87.9399 12.5624 88.4619 13.514C88.984 14.47 89.2428 15.627 89.2428 16.994V25.7098H86.8199V17.347C86.8199 15.8727 86.4541 14.7425 85.7268 13.9607C84.9995 13.1789 84.0134 12.7858 82.7775 12.7858C81.5415 12.7858 80.4885 13.1968 79.7344 14.0143C78.9804 14.8318 78.6011 16.0157 78.6011 17.5614V25.7098H76.1738V17.347C76.1738 15.8727 75.8079 14.7425 75.0806 13.9607C74.3534 13.1789 73.3673 12.7858 72.1313 12.7858C70.8954 12.7858 69.8424 13.1968 69.0883 14.0143C68.3342 14.8318 67.955 16.0157 67.955 17.5614V25.7098H65.5009V10.9229H67.955V13.0538C68.4413 12.281 69.0928 11.6868 69.9093 11.2714C70.7258 10.8559 71.6271 10.6504 72.6177 10.6504C73.8581 10.6504 74.9512 10.9274 75.9061 11.4858C76.8565 12.0442 77.5659 12.8617 78.0344 13.9428C78.4494 12.9019 79.1321 12.0889 80.0824 11.5126C81.0328 10.9363 82.0948 10.6504 83.2638 10.6504C84.4328 10.6504 85.4368 10.8872 86.3336 11.3652V11.3696Z" fill="#4B095D"/>
<path d="M91.7191 14.2823C92.3304 13.1387 93.1693 12.2541 94.2401 11.6243C95.311 10.9944 96.4979 10.6816 97.8097 10.6816C99.1215 10.6816 100.228 10.9586 101.178 11.517C102.129 12.0755 102.838 12.7768 103.307 13.6212V10.9229H105.788V25.7054H103.307V22.9535C102.82 23.8157 102.098 24.5304 101.138 25.0978C100.179 25.6651 99.059 25.9466 97.7829 25.9466C96.5068 25.9466 95.2842 25.6249 94.2267 24.9772C93.1693 24.3294 92.3304 23.4225 91.7191 22.2521C91.1079 21.0816 90.8044 19.7504 90.8044 18.2583C90.8044 16.7662 91.1079 15.4215 91.7191 14.2779V14.2823ZM102.633 15.3768C102.182 14.5504 101.576 13.916 100.813 13.4737C100.05 13.0315 99.2107 12.8126 98.2915 12.8126C97.3724 12.8126 96.5425 13.027 95.7839 13.4603C95.0254 13.8937 94.4275 14.5236 93.9769 15.35C93.5262 16.1765 93.3031 17.1504 93.3031 18.2627C93.3031 19.3751 93.5262 20.3803 93.9769 21.2157C94.4275 22.0511 95.0299 22.6899 95.7839 23.1322C96.538 23.5744 97.3724 23.7933 98.2915 23.7933C99.2107 23.7933 100.05 23.5744 100.813 23.1322C101.576 22.6899 102.182 22.0511 102.633 21.2157C103.084 20.3803 103.307 19.4019 103.307 18.2895C103.307 17.1772 103.084 16.2033 102.633 15.3768Z" fill="#4B095D"/>
<path d="M151.254 10.9229H148.8V25.7053H151.254V10.9229Z" fill="#4B095D"/>
<path d="M167.92 19.2322H156.118C156.207 20.6885 156.707 21.8277 157.613 22.6452C158.518 23.4627 159.621 23.8737 160.914 23.8737C161.976 23.8737 162.86 23.628 163.569 23.1322C164.279 22.6363 164.779 21.9751 165.064 21.1487H167.706C167.308 22.5693 166.519 23.7263 165.336 24.6153C164.154 25.5043 162.677 25.9511 160.919 25.9511C159.518 25.9511 158.264 25.6383 157.162 25.0084C156.055 24.3785 155.19 23.4851 154.561 22.3236C153.932 21.1621 153.619 19.8174 153.619 18.2895C153.619 16.7617 153.923 15.4215 154.534 14.2689C155.145 13.1163 156.002 12.2318 157.108 11.6109C158.215 10.9899 159.482 10.6816 160.919 10.6816C162.356 10.6816 163.56 10.9899 164.636 11.5974C165.711 12.2095 166.545 13.0493 167.13 14.1215C167.714 15.1937 168.004 16.3999 168.004 17.749C168.004 18.2181 167.978 18.7095 167.924 19.2322H167.92ZM164.85 14.8229C164.435 14.1483 163.877 13.6346 163.168 13.2861C162.458 12.9377 161.673 12.759 160.812 12.759C159.571 12.759 158.518 13.1566 157.644 13.9473C156.769 14.738 156.274 15.837 156.149 17.2397H165.47C165.47 16.306 165.265 15.4974 164.85 14.8273V14.8229Z" fill="#4B095D"/>
<path d="M6.95166 8.92129C7.42909 8.756 7.88866 8.54157 8.31255 8.27353C9.5128 7.50514 10.2803 6.4017 10.5926 4.99002C11.1414 2.5017 10.4587 1.25978 9.78944 0.656687C9.08892 0.0178555 8.08053 -0.169773 7.09891 0.156343C5.87634 0.558405 4.91703 1.66631 4.64931 2.97524C4.42622 4.07868 4.31913 5.40548 4.27451 6.6206C4.86795 6.58486 5.76926 6.46425 6.47424 6.07559C6.48762 5.13744 6.50547 4.16803 6.7955 3.41304C6.98736 2.9127 7.38447 2.36768 7.78158 2.23813C7.84851 2.21579 7.95113 2.18899 8.04929 2.18899C8.14746 2.18899 8.24562 2.21133 8.32147 2.2828C8.56241 2.5017 8.74089 3.21648 8.45533 4.51648C8.36163 4.94535 8.12068 6.01304 6.65271 6.68315C5.62647 7.20136 4.37268 7.25944 3.84617 7.25944C3.78817 7.25944 3.73908 7.25944 3.69893 7.25944C1.98109 7.30411 0.486349 6.97799 0.472963 6.97799L0 9.11786C0.129396 9.14466 2.04356 9.56459 4.22097 9.43057C4.6047 9.3993 5.76926 9.27421 6.95612 8.92129H6.95166Z" fill="#4B095D"/>
<path d="M5.96983 13.8662L6.80382 13.1172C8.08497 11.9665 9.9586 11.1631 12.5235 11.7275V11.7285C14.5381 12.1739 15.5583 13.9349 16.0685 15.79C16.5613 17.5819 16.5282 19.3009 16.5226 19.5078C16.4845 20.1909 16.54 21.078 16.714 21.8652C16.801 22.259 16.9218 22.6459 17.086 22.9756C17.2464 23.2975 17.4733 23.6145 17.7989 23.8018C18.1771 24.0197 18.6292 24.0131 19.0597 23.9102C19.3812 23.8332 19.7289 23.693 20.0948 23.502C20.2963 23.7838 20.5476 24.1084 20.8439 24.4463C19.3063 25.2984 18.1173 25.3542 17.2101 24.8301C16.2314 24.2653 15.7537 23.2699 15.5275 22.1963C15.357 21.3874 15.34 20.5897 15.34 19.9756V19.4219L15.3351 19.0166C15.3232 18.433 15.273 17.3665 15.0206 16.2979C14.6936 14.9136 13.9639 13.2662 12.2716 12.8916H12.2706C9.56384 12.2949 7.86717 13.5298 6.93468 14.709H6.9337C6.30405 15.5058 5.97472 16.4922 5.97472 17.499V25.5H4.78331V10.5029C5.09606 10.465 5.50766 10.4062 5.96983 10.3164V13.8662Z" fill="#4B095D" stroke="#4B095D"/>
<path d="M125.027 22.1224C124.786 22.1626 124.563 22.1536 124.358 22.0866C123.604 21.8454 122.979 20.9162 122.52 20.0361C121.618 18.6021 121.226 16.9 121.052 15.676C121.025 15.5241 120.998 15.3722 120.98 15.2203C119.776 5.84331 121.609 4.0519 122.453 3.71685C122.538 3.68558 122.667 3.65431 122.823 3.65431C123.051 3.65431 123.332 3.71685 123.577 3.93129C124.282 4.53438 124.425 6.03988 123.97 8.05912C123.292 11.0657 122.52 13.6969 121.69 15.8949C121.842 16.8196 122.118 17.9677 122.631 19.0265C123.805 16.5248 124.956 13.1162 125.991 8.51479C126.812 4.88283 125.862 3.15843 124.92 2.35431C123.832 1.42063 122.497 1.46531 121.685 1.78696C119.196 2.77424 118.178 6.22751 118.602 12.2986C117.415 11.5035 116.005 11.0567 114.533 11.0567C110.499 11.0567 107.22 14.3402 107.22 18.3787C107.22 19.4196 107.438 20.4069 107.831 21.3048C108.099 21.8141 108.532 22.5423 109.121 23.2883C110.459 24.767 112.391 25.7007 114.537 25.7007C115.068 25.7007 115.59 25.6382 116.095 25.5265C117.152 25.4237 118.375 24.91 119.651 23.61C119.677 23.5832 119.704 23.5564 119.731 23.5296C119.758 23.5028 119.78 23.476 119.807 23.4492C119.999 23.2481 120.186 23.0382 120.356 22.8148C120.494 22.645 120.632 22.4619 120.766 22.2742C120.387 21.6399 120.057 21.01 119.776 20.4203C119.686 20.6571 119.575 20.8983 119.441 21.0904C118.504 22.6942 116.394 23.6234 114.542 23.6234C111.65 23.6234 109.299 21.2691 109.299 18.3742C109.299 15.4794 111.65 13.1251 114.542 13.1251C116.318 13.1251 117.973 14.032 118.937 15.5107C119.097 16.7303 119.383 17.8962 119.798 18.9863C120.182 19.9244 120.726 21.0859 121.431 22.2162C122.011 23.0248 122.761 23.744 123.733 24.0567C124.563 24.3248 125.438 24.2577 126.344 23.8736C125.71 23.2124 125.295 22.5825 125.036 22.1134L125.027 22.1224Z" fill="#4B095D"/>
<path d="M147.538 23.7397C146.94 24.3205 146.288 24.7404 145.579 24.9861C143.763 25.6205 141.693 25.1112 139.738 23.5521C139.368 23.2528 139.029 22.8954 138.725 22.5022C138.043 21.5105 137.623 20.6885 137.405 20.2016C137.405 20.2016 137.405 20.1971 137.409 20.1926C136.45 17.9545 136.115 15.6493 136.093 15.4974V15.4483C136.075 15.3187 136.066 15.1892 136.053 15.0596C135.067 13.8534 133.581 13.1297 131.997 13.1297C129.105 13.1297 126.754 15.484 126.754 18.3789C126.754 18.3789 126.754 18.3833 126.754 18.3878C126.754 19.2053 126.941 19.9737 127.267 20.6662C127.861 21.9572 128.936 22.9803 130.243 23.4136C130.832 23.637 131.47 23.762 132.14 23.762C132.14 23.762 134.777 23.8827 137.016 20.7734C137.257 21.2648 137.628 21.9349 138.159 22.7256C135.642 25.884 131.997 25.7053 131.997 25.7053C130.109 25.7053 128.387 24.9816 127.089 23.8022C126.361 23.1187 125.893 22.4442 125.607 21.9438C125.607 21.9438 125.607 21.9438 125.612 21.9438C125.023 20.8895 124.684 19.6744 124.684 18.3833C124.684 14.3449 127.963 11.0613 131.997 11.0613C133.393 11.0613 134.736 11.4679 135.883 12.1871C135.736 6.88437 136.744 4.2263 139.149 3.27475C139.961 2.9531 141.295 2.90843 142.384 3.8421C143.326 4.64623 144.272 6.37063 143.455 10.0026C142.995 12.0442 141.969 15.9754 140.256 19.3796C140.202 19.4868 140.149 19.594 140.091 19.6967C139.582 18.7184 139.274 17.6105 139.114 16.8912C140.095 14.595 140.885 11.9816 141.434 9.54692C141.889 7.52767 141.746 6.02217 141.041 5.41908C140.626 5.06169 140.122 5.12423 139.917 5.20465C138.766 5.66032 137.539 7.13007 138.074 14.3091L138.123 14.9345C138.132 15.0373 138.141 15.1356 138.15 15.2428C138.221 15.7476 138.386 16.5696 138.65 17.4854C138.868 18.3297 139.234 19.4555 139.81 20.4026C140.158 21.0235 140.564 21.5686 141.032 21.9394C141.826 22.5737 143.388 23.5655 144.892 23.0383C145.418 22.8552 147.078 21.8411 147.533 21.3229V23.7486L147.538 23.7397Z" fill="#4B095D"/>
<path d="M150.023 7.96067C151.373 7.96067 152.468 6.86462 152.468 5.51256C152.468 4.16051 151.373 3.06445 150.023 3.06445C148.673 3.06445 147.578 4.16051 147.578 5.51256C147.578 6.86462 148.673 7.96067 150.023 7.96067Z" fill="#4B095D"/>
</g>
<defs>
<clipPath id="clip0_1817_3722">
<rect width="168" height="26" fill="white"/>
</clipPath>
</defs>
</svg>
