<svg preserveAspectRatio="none" width="100%" height="100%" overflow="visible" style="display: block;" viewBox="0 0 52 37.2797" fill="none" xmlns="http://www.w3.org/2000/svg">
<g id="fast">
<path id="Ellipse 122 (Stroke)" fill-rule="evenodd" clip-rule="evenodd" d="M33.3602 34.9497C42.3679 34.9497 49.6701 27.6475 49.6701 18.6398C49.6701 9.63215 42.3679 2.32998 33.3602 2.32998C24.3525 2.32998 17.0504 9.63215 17.0504 18.6398C17.0504 27.6475 24.3525 34.9497 33.3602 34.9497ZM33.3602 37.2797C43.6547 37.2797 52 28.9343 52 18.6398C52 8.34534 43.6547 0 33.3602 0C23.0657 0 14.7204 8.34534 14.7204 18.6398C14.7204 28.9343 23.0657 37.2797 33.3602 37.2797Z" fill="url(#paint0_linear_0_21)"/>
<path id="Vector 76 (Stroke)" fill-rule="evenodd" clip-rule="evenodd" d="M0 26.5554C0 26.0407 0.417267 25.6235 0.931991 25.6235H12.6776C13.1924 25.6235 13.6096 26.0407 13.6096 26.5554C13.6096 27.0702 13.1924 27.4874 12.6776 27.4874H0.931991C0.417267 27.4874 0 27.0702 0 26.5554Z" fill="var(--fill-0, #41748D)"/>
<path id="Vector 77 (Stroke)" fill-rule="evenodd" clip-rule="evenodd" d="M0 19.1505C0 18.6358 0.417267 18.2185 0.931991 18.2185H10.6349C11.1496 18.2185 11.5669 18.6358 11.5669 19.1505C11.5669 19.6652 11.1496 20.0825 10.6349 20.0825H0.931991C0.417267 20.0825 0 19.6652 0 19.1505Z" fill="var(--fill-0, #41748D)"/>
<path id="Vector 78 (Stroke)" fill-rule="evenodd" clip-rule="evenodd" d="M0 11.7456C0 11.2309 0.417267 10.8136 0.931991 10.8136H12.6776C13.1924 10.8136 13.6096 11.2309 13.6096 11.7456C13.6096 12.2603 13.1924 12.6776 12.6776 12.6776H0.931991C0.417267 12.6776 0 12.2603 0 11.7456Z" fill="var(--fill-0, #7EBCC6)"/>
<path id="Vector 79 (Stroke)" fill-rule="evenodd" clip-rule="evenodd" d="M33.1048 9.79232C33.6195 9.79232 34.0368 10.2096 34.0368 10.7243V19.456L42.3525 25.8151C42.7614 26.1277 42.8394 26.7127 42.5267 27.1215C42.214 27.5304 41.6291 27.6084 41.2202 27.2957L32.1728 20.3771V10.7243C32.1728 10.2096 32.5901 9.79232 33.1048 9.79232Z" fill="var(--fill-0, #EB5C5F)"/>
</g>
<defs>
<linearGradient id="paint0_linear_0_21" x1="33.3602" y1="0" x2="33.6023" y2="36.0693" gradientUnits="userSpaceOnUse">
<stop stop-color="#7EBCC6"/>
<stop offset="1" stop-color="#41748D"/>
</linearGradient>
</defs>
</svg>
