<svg preserveAspectRatio="none" width="100%" height="100%" overflow="visible" style="display: block;" viewBox="0 0 35 47.3361" fill="none" xmlns="http://www.w3.org/2000/svg">
<g id="sustained">
<path id="Vector (Stroke)" fill-rule="evenodd" clip-rule="evenodd" d="M5.12772 5.1107C8.40974 1.83791 12.8603 0 17.5 0C22.1342 -7.66063e-06 26.5799 1.83355 29.861 5.09948C33.1407 8.36401 34.9889 12.7931 34.9991 17.4156C35.0259 19.957 34.4806 22.472 33.4036 24.7751L33.3885 24.8075L33.3717 24.8391C32.8558 25.8128 32.2764 26.7517 31.6372 27.6498L31.6273 27.6636L31.6171 27.6773C30.5342 29.1249 29.6236 30.6929 28.9037 32.3496C28.4221 34.1032 28.1589 35.9093 28.1202 37.7273C28.1033 38.5193 27.4475 39.1477 26.6555 39.1308C25.8635 39.1139 25.2351 38.4582 25.252 37.6661C25.2965 35.5759 25.6036 33.4995 26.1662 31.4856L26.1919 31.3932L26.2298 31.3052C27.0427 29.4131 28.0764 27.6233 29.3095 25.9728C29.8651 25.1909 30.3695 24.3742 30.8198 23.5278C31.7055 21.6212 32.1533 19.5415 32.1303 17.4405L32.1302 17.4339L32.1302 17.4274C32.1232 13.5651 30.5797 9.86257 27.8372 7.13276C25.0945 4.40282 21.3769 2.86884 17.5 2.86885C13.6185 2.86885 9.89683 4.40647 7.15344 7.14214C4.41019 9.87768 2.86978 13.587 2.86978 17.4539V17.4617L2.86969 17.4696C2.84675 19.568 3.29332 21.6451 4.17681 23.5497C4.62917 24.3768 5.13346 25.1747 5.68667 25.9385C6.92141 27.5905 7.95643 29.382 8.77022 31.2761L8.80806 31.3641L8.83384 31.4564C9.39636 33.4704 9.7035 35.5468 9.74804 37.637C9.76492 38.4291 9.13654 39.0848 8.3445 39.1017C7.55247 39.1186 6.89672 38.4902 6.87984 37.6981C6.8411 35.8802 6.57792 34.0741 6.09631 32.3205C5.37636 30.6637 4.46581 29.0958 3.38286 27.6482L3.37641 27.6395L3.3701 27.6308C2.73354 26.7528 2.15428 25.8347 1.63591 24.8824L1.61496 24.844L1.5964 24.8043C0.519567 22.5015 -0.0256771 19.987 0.000928915 17.4461C0.00301138 12.8185 1.84741 8.38179 5.12772 5.1107Z" fill="url(#paint0_linear_0_12)"/>
<path id="Vector" d="M23.2386 45.0409H11.7632C11.4588 45.0409 11.167 45.1618 10.9517 45.377C10.7365 45.5922 10.6156 45.8841 10.6156 46.1885C10.6156 46.4928 10.7365 46.7847 10.9517 46.9999C11.167 47.2151 11.4588 47.336 11.7632 47.336H23.2386C23.5429 47.336 23.8348 47.2151 24.05 46.9999C24.2652 46.7847 24.3861 46.4928 24.3861 46.1885C24.3861 45.8841 24.2652 45.5922 24.05 45.377C23.8348 45.1618 23.5429 45.0409 23.2386 45.0409V45.0409Z" fill="var(--fill-0, #41748D)"/>
<g id="Group">
<path id="Vector (Stroke)_2" fill-rule="evenodd" clip-rule="evenodd" d="M26.1499 18.1196C26.3311 18.1157 26.5113 18.148 26.6799 18.2147C26.8493 18.2816 27.0035 18.3819 27.1335 18.5096C27.2635 18.6372 27.3665 18.7896 27.4366 18.9578C27.5066 19.126 27.5422 19.3065 27.5412 19.4887L27.5411 19.4978C27.5211 20.7518 27.3905 22.8497 26.391 24.6524C25.8826 25.5695 25.1454 26.418 24.087 27.0324C23.0298 27.6461 21.7011 27.9978 20.0522 27.9978C19.5769 27.9978 19.1916 27.6125 19.1916 27.1371C19.1916 26.6618 19.5769 26.2765 20.0522 26.2765C21.4523 26.2765 22.4717 25.9797 23.2228 25.5437C23.9728 25.1084 24.5041 24.5058 24.8856 23.8178C25.5876 22.5517 25.7671 21.0257 25.8101 19.8502C21.8501 19.9817 20.1133 21.014 19.2896 22.1886C18.3904 23.471 18.3624 25.173 18.3624 27.1371V40.653C18.3624 41.1283 17.977 41.5136 17.5017 41.5136C17.0264 41.5136 16.641 41.1283 16.641 40.653V27.1371C16.641 27.0985 16.641 27.0596 16.641 27.0206C16.6404 25.2079 16.6397 22.9695 17.8802 21.2004C19.1974 19.322 21.7103 18.2014 26.1499 18.1196Z" fill="var(--fill-0, #EB5C5F)"/>
<path id="Vector (Stroke)_3" fill-rule="evenodd" clip-rule="evenodd" d="M22.4364 23.4595C22.4953 23.9312 22.1608 24.3613 21.6891 24.4203C19.8909 24.6451 19.1093 25.4015 18.7446 25.994C18.5512 26.3083 18.4544 26.611 18.4065 26.8327C18.3827 26.9428 18.3715 27.0303 18.3664 27.0851C18.3638 27.1125 18.3628 27.1314 18.3624 27.1405C18.3622 27.1429 18.3622 27.1446 18.3622 27.1456C18.3575 27.617 17.974 27.9977 17.5015 27.9977C17.0262 27.9977 16.6409 27.6123 16.6409 27.137H17.5015C16.6409 27.137 16.6409 27.1364 16.6409 27.1358L16.6409 27.1346L16.6409 27.1319L16.6409 27.1257L16.6412 27.1098C16.6415 27.0976 16.6419 27.0825 16.6427 27.0645C16.6443 27.0286 16.6472 26.9812 16.6526 26.9239C16.6634 26.8094 16.6841 26.6537 16.7241 26.4689C16.8037 26.1008 16.962 25.6065 17.2787 25.0919C17.9342 24.0265 19.193 22.9976 21.4756 22.7123C21.9473 22.6533 22.3774 22.9879 22.4364 23.4595Z" fill="var(--fill-0, #EB5C5F)"/>
</g>
<path id="Vector (Stroke)_4" fill-rule="evenodd" clip-rule="evenodd" d="M8.84753 12.5085C8.66603 12.5046 8.48566 12.5372 8.31705 12.6042C8.14761 12.6715 7.99363 12.7722 7.86411 12.9001C7.7346 13.0279 7.63217 13.1804 7.56265 13.3482C7.49313 13.5161 7.45787 13.696 7.45884 13.8776L7.45894 13.8866C7.45949 13.9213 7.46003 13.9567 7.46058 13.9929C7.47906 15.2064 7.5101 17.2451 8.35085 18.9965C8.79481 19.9213 9.47108 20.7849 10.4923 21.4108C11.5109 22.0351 12.8137 22.3867 14.4541 22.3867C14.9295 22.3867 15.3148 22.0014 15.3148 21.5261C15.3148 21.0508 14.9295 20.6654 14.4541 20.6654C13.0616 20.6654 12.086 20.3686 11.3918 19.9432C10.7002 19.5193 10.2292 18.9319 9.90262 18.2516C9.29268 16.981 9.21145 15.4562 9.18664 14.2391C13.1229 14.3709 14.8482 15.4022 15.6669 16.5758C16.5618 17.8588 16.5897 19.562 16.5897 21.5261V26.6271C16.5897 27.1025 16.975 27.4878 17.4504 27.4878C17.9257 27.4878 18.311 27.1025 18.311 26.6271V21.5261C18.311 21.4874 18.311 21.4486 18.311 21.4095C18.3116 19.5969 18.3123 17.3596 17.0787 15.5911C15.7678 13.7118 13.266 12.5904 8.84753 12.5085Z" fill="var(--fill-0, #EB5C5F)"/>
<path id="Vector_2" d="M25.9838 40.4508H9.01566C8.70926 40.4508 8.41541 40.5717 8.19875 40.7869C7.98209 41.0021 7.86038 41.294 7.86038 41.5984C7.86038 41.9027 7.98209 42.1946 8.19875 42.4098C8.41541 42.625 8.70926 42.7459 9.01566 42.7459H25.9838C26.2902 42.7459 26.584 42.625 26.8007 42.4098C27.0174 42.1946 27.1391 41.9027 27.1391 41.5984C27.1391 41.294 27.0174 41.0021 26.8007 40.7869C26.584 40.5717 26.2902 40.4508 25.9838 40.4508Z" fill="var(--fill-0, #41748D)"/>
<path id="Vector (Stroke)_5" fill-rule="evenodd" clip-rule="evenodd" d="M12.5806 17.6691C12.4226 18.1174 12.6578 18.6089 13.1061 18.7669C13.9299 19.0574 14.6227 19.8293 15.1795 21.0391C15.7302 22.2358 16.0857 23.7306 16.3083 25.2285C16.5297 26.7181 16.6133 28.1657 16.6411 29.245C16.655 29.7834 16.6549 30.2271 16.6514 30.5349C16.6496 30.6888 16.647 30.8085 16.6449 30.8889C16.6438 30.9291 16.6428 30.9594 16.6422 30.9792L16.6414 31.0011L16.6412 31.0066C16.6223 31.4815 16.9919 31.882 17.4668 31.901C17.9417 31.92 18.3421 31.5504 18.3611 31.0754L17.5717 31.0438C18.3611 31.0754 18.3611 31.0757 18.3611 31.0754L18.3613 31.072L18.3616 31.0643L18.3625 31.0369C18.3633 31.0132 18.3644 30.9789 18.3656 30.9346C18.3679 30.8461 18.3707 30.7177 18.3726 30.5546C18.3763 30.2286 18.3764 29.7633 18.3619 29.2007C18.333 28.0779 18.2458 26.5561 18.0109 24.9755C17.7773 23.4033 17.3911 21.7273 16.7432 20.3195C16.1013 18.9247 15.1386 17.6583 13.6785 17.1436C13.2302 16.9855 12.7387 17.2208 12.5806 17.6691Z" fill="var(--fill-0, #EB5C5F)"/>
</g>
<defs>
<linearGradient id="paint0_linear_0_12" x1="17.5" y1="1.43443" x2="17.5" y2="37.6967" gradientUnits="userSpaceOnUse">
<stop stop-color="#7EBCC6"/>
<stop offset="1" stop-color="#41748D"/>
</linearGradient>
</defs>
</svg>
