<svg preserveAspectRatio="none" width="100%" height="100%" overflow="visible" style="display: block;" viewBox="0 0 61.8125 64" fill="none" xmlns="http://www.w3.org/2000/svg">
<g id="icon">
<path id="Subtract" fill-rule="evenodd" clip-rule="evenodd" d="M15.2252 7.53335C12.5416 7.53335 10.3661 9.70883 10.3661 12.3924V15.0671H20.0842V12.3924C20.0842 9.70883 17.9087 7.53335 15.2252 7.53335ZM15.2253 9.41673C13.9729 9.41673 12.9577 10.432 12.9577 11.6843V15.0671H17.4928V11.6843C17.4928 10.432 16.4776 9.41673 15.2253 9.41673Z" fill="var(--fill-0, #7EBCC6)"/>
<path id="Vector" d="M25.5538 63.9822C20.4078 63.9822 18.613 62.5488 16.0457 59.7208C15.1849 58.7719 14.528 57.665 14.1135 56.4652C13.699 55.2655 13.5354 53.9971 13.6322 52.7349C13.677 52.4045 13.8538 52.1045 14.1243 51.9001C14.3947 51.6956 14.737 51.603 15.0771 51.6424C15.4172 51.6818 15.7276 51.85 15.9412 52.1105C16.1547 52.3711 16.2542 52.703 16.2181 53.0345C16.1636 53.9482 16.2953 54.8634 16.6057 55.7274C16.916 56.5914 17.399 57.3871 18.0266 58.0687C20.0876 60.3155 21.0557 61.4224 25.5707 61.4224C26.7784 61.4945 27.9882 61.3184 29.1214 60.9055C30.2545 60.4926 31.2856 59.8522 32.1476 59.0258C36.0264 55.1314 35.7678 47.2228 35.5954 42.5091C35.5954 41.6703 35.5431 40.9573 35.5431 40.3537V10.5688C35.5431 3.85696 39.6542 0 46.8345 0C57.5395 0 58.6954 7.80828 58.6954 11.1724V32.7956C58.6954 32.9608 58.662 33.1244 58.597 33.277C58.532 33.4297 58.4368 33.5684 58.3167 33.6852C58.1967 33.8021 58.0541 33.8947 57.8973 33.958C57.7404 34.0212 57.5723 34.0537 57.4025 34.0537C57.2327 34.0537 57.0646 34.0212 56.9077 33.958C56.7509 33.8947 56.6083 33.8021 56.4883 33.6852C56.3682 33.5684 56.273 33.4297 56.208 33.277C56.143 33.1244 56.1096 32.9608 56.1096 32.7956V11.2249C56.1096 7.27504 54.4981 2.56881 46.8345 2.56881C41.0595 2.56881 38.1289 5.27841 38.1289 10.6212V40.4106C38.1289 40.9888 38.1289 41.6943 38.172 42.4821C38.3459 47.5988 38.6199 56.1709 33.9746 60.8263C32.8732 61.893 31.5558 62.725 30.106 63.2694C28.6563 63.8137 27.106 64.0585 25.5538 63.9882V63.9822Z" fill="url(#paint0_linear_0_34)"/>
<path id="Vector_2" d="M58.7908 41.7288H56.205C55.9107 41.7276 55.6257 41.6289 55.3968 41.4489C55.1679 41.2689 55.0089 41.0184 54.9459 40.7387L53.2221 33.0997C53.1715 32.9134 53.1658 32.7182 53.2057 32.5294C53.2455 32.3406 53.3296 32.1633 53.4516 32.0115C53.5735 31.8596 53.7299 31.7372 53.9085 31.654C54.0871 31.5707 54.2831 31.5288 54.4811 31.5315H60.5147C60.7099 31.5291 60.9031 31.5702 61.0795 31.6516C61.2559 31.733 61.4109 31.8525 61.5326 32.001C61.6544 32.1496 61.7397 32.3232 61.782 32.5086C61.8243 32.6941 61.8225 32.8865 61.7768 33.0712L60.0545 40.7103C59.9972 40.996 59.84 41.2536 59.6097 41.4393C59.3793 41.625 59.0899 41.7273 58.7908 41.7288ZM57.2393 39.2124H57.7749L58.9293 34.0958H56.0818L57.2393 39.2124Z" fill="var(--fill-0, #41748D)"/>
<path id="Vector_3" d="M57.4381 47.827C57.0958 47.825 56.7681 47.6918 56.5261 47.4563C56.2841 47.2207 56.1472 46.9019 56.1452 46.5688V39.9513C56.1452 39.6176 56.2814 39.2976 56.5239 39.0616C56.7663 38.8256 57.0952 38.6931 57.4381 38.6931C57.781 38.6931 58.1099 38.8256 58.3523 39.0616C58.5948 39.2976 58.731 39.6176 58.731 39.9513V46.5688C58.731 46.9025 58.5948 47.2225 58.3523 47.4584C58.1099 47.6944 57.781 47.827 57.4381 47.827Z" fill="var(--fill-0, #41748D)"/>
<path id="Subtract_2" fill-rule="evenodd" clip-rule="evenodd" d="M0 18.556C0 15.2423 2.68629 12.556 6 12.556H24.4501C27.7638 12.556 30.4501 15.2423 30.4501 18.556V47.364C30.4501 50.6777 27.7638 53.364 24.4501 53.364H6C2.68629 53.364 0 50.6778 0 47.364V18.556ZM2.59159 18.0679C2.59159 16.411 3.93473 15.0679 5.59159 15.0679H24.8587C26.5155 15.0679 27.8587 16.411 27.8587 18.0679V47.8534C27.8587 49.5102 26.5155 50.8534 24.8587 50.8534H5.59159C3.93473 50.8534 2.59159 49.5102 2.59159 47.8534V18.0679ZM20.0842 12.556H10.3661V15.0673H20.0842V12.556Z" fill="url(#paint1_linear_0_34)"/>
<ellipse id="Ellipse 117" cx="15.2248" cy="12.2418" rx="0.97181" ry="0.941723" fill="var(--fill-0, #7EBCC6)"/>
<path id="Subtract_3" fill-rule="evenodd" clip-rule="evenodd" d="M3.88755 32.8662C6.8281 32.3026 10.5767 32.6702 14.5773 35.7897C18.4709 38.8256 22.842 39.2551 26.5631 38.7564V46.5977C26.5631 48.2545 25.22 49.5977 23.5631 49.5977H6.88755C5.23069 49.5977 3.88755 48.2545 3.88755 46.5977V32.8662Z" fill="var(--fill-0, #7EBCC6)"/>
<rect id="Rectangle 423" x="17.4925" y="17.5787" width="9.07023" height="1.88345" rx="0.941723" fill="var(--fill-0, #EB5C5F)"/>
<rect id="Rectangle 425" x="17.4925" y="26.3681" width="9.07023" height="1.88345" rx="0.941723" fill="var(--fill-0, #EB5C5F)"/>
<rect id="Rectangle 424" x="14.253" y="21.974" width="12.3096" height="1.88345" rx="0.941723" fill="var(--fill-0, #EB5C5F)"/>
<rect id="Rectangle 426" x="12.3097" y="53.3648" width="5.83086" height="3.76689" fill="var(--fill-0, #41748D)"/>
</g>
<defs>
<linearGradient id="paint0_linear_0_34" x1="36.1503" y1="0" x2="36.1503" y2="64" gradientUnits="userSpaceOnUse">
<stop stop-color="#7EBCC6"/>
<stop offset="1" stop-color="#41748D"/>
</linearGradient>
<linearGradient id="paint1_linear_0_34" x1="15.225" y1="12.556" x2="15.225" y2="53.364" gradientUnits="userSpaceOnUse">
<stop stop-color="#7EBCC6"/>
<stop offset="1" stop-color="#41748D"/>
</linearGradient>
</defs>
</svg>
