<svg preserveAspectRatio="none" width="100%" height="100%" overflow="visible" style="display: block;" viewBox="0 0 108.998 35" fill="none" xmlns="http://www.w3.org/2000/svg">
<g id="logo">
<path id="Vector" d="M29.9486 28.2608C29.4175 28.258 28.9017 28.0777 28.4789 27.7472C28.0561 27.4167 27.7491 26.9538 27.6043 26.4282L23.6542 16.9761C23.5174 16.6776 23.4416 16.3534 23.4315 16.0236C23.4388 15.8092 23.4881 15.5985 23.5766 15.4042C23.6651 15.2099 23.7908 15.0361 23.9463 14.893C24.1018 14.75 24.2838 14.6408 24.4813 14.572C24.6789 14.5031 24.888 14.4761 25.0959 14.4925C25.6 14.4925 26.2681 14.6854 26.6783 15.8548L29.9134 24.451L33.2306 15.8307C33.6643 14.6854 34.309 14.4925 34.8013 14.4925C35.0045 14.4793 35.2082 14.5091 35.3998 14.5801C35.5914 14.6511 35.7667 14.7618 35.915 14.9053C36.0634 15.0489 36.1815 15.2222 36.2621 15.4145C36.3427 15.6069 36.3841 15.8142 36.3837 16.0236C36.3757 16.3485 36.3039 16.6684 36.1727 16.964L32.2929 26.4282C32.143 26.9508 31.8348 27.4104 31.4131 27.7401C30.9913 28.0698 30.4782 28.2522 29.9486 28.2608V28.2608Z" fill="var(--fill-0, #C31C4A)"/>
<path id="Vector_2" d="M45.9247 30.8651C44.9518 33.2763 43.7914 34.6749 41.0134 34.6749C39.642 34.6749 39.2317 33.843 39.2317 33.1678C39.2243 32.8472 39.3291 32.5345 39.5271 32.2866C39.725 32.0388 40.0029 31.8723 40.3101 31.8175C40.4815 31.798 40.6545 31.798 40.8258 31.8175C41.6932 31.8175 42.5255 31.2629 43.1701 29.7438L43.8148 28.0439L38.8918 16.9762C38.7667 16.6658 38.6952 16.3353 38.6808 15.9996C38.6898 15.7921 38.7386 15.5885 38.8242 15.4004C38.9098 15.2124 39.0307 15.0435 39.1798 14.9035C39.329 14.7635 39.5035 14.6552 39.6935 14.5847C39.8834 14.5141 40.085 14.4829 40.2867 14.4926C40.6451 14.494 40.994 14.6111 41.2842 14.8274C41.5744 15.0438 41.7913 15.3483 41.9042 15.6982L45.4206 24.3305L48.4448 15.7826C48.8433 14.6493 49.488 14.3961 50.0272 14.3961C50.2368 14.3699 50.4495 14.3907 50.6506 14.4569C50.8517 14.5232 51.0365 14.6334 51.1924 14.7799C51.3482 14.9265 51.4714 15.106 51.5536 15.3061C51.6357 15.5062 51.6748 15.7222 51.6682 15.9393C51.6645 16.2544 51.6007 16.5657 51.4806 16.8556L45.9247 30.8651Z" fill="var(--fill-0, #C31C4A)"/>
<path id="Vector_3" d="M56.6028 22.4134C56.708 23.3349 57.146 24.1821 57.8298 24.7872C58.5136 25.3923 59.3934 25.7112 60.295 25.6807C61.3888 25.7115 62.4517 25.3053 63.2605 24.5474C63.5591 24.2491 63.9579 24.0807 64.3741 24.0772C64.5451 24.0704 64.7158 24.1001 64.8752 24.1643C65.0346 24.2286 65.1794 24.326 65.3004 24.4505C65.4215 24.5751 65.5162 24.724 65.5787 24.888C65.6412 25.0519 65.67 25.2274 65.6634 25.4034C65.6581 25.6315 65.6075 25.8561 65.5148 26.0634C65.4221 26.2707 65.2892 26.4564 65.1242 26.609C64.4898 27.2345 63.7363 27.7182 62.9113 28.0294C62.0862 28.3407 61.2074 28.4728 60.3302 28.4175C56.3332 28.4175 53.3676 25.7771 53.3676 21.4489C53.3214 20.5078 53.4662 19.5671 53.7927 18.6868C54.1193 17.8064 54.6204 17.0056 55.2644 16.3353C55.9083 15.6651 56.6808 15.1401 57.5328 14.7937C58.3848 14.4474 59.2975 14.2873 60.213 14.3236C60.9857 14.2798 61.7592 14.3938 62.4888 14.659C63.2185 14.9243 63.8898 15.3356 64.4641 15.8691C65.0384 16.4027 65.5043 17.0479 65.8349 17.7676C66.1655 18.4873 66.3542 19.2673 66.3901 20.0624C66.4252 20.2939 66.4447 20.5275 66.4488 20.7617C66.4488 21.9673 65.8275 22.4255 64.7491 22.4255L56.6028 22.4134ZM63.2371 20.0021C63.2753 19.5768 63.2233 19.1481 63.0848 18.7454C62.9463 18.3428 62.7246 17.9758 62.4349 17.6698C62.1452 17.3638 61.7945 17.1261 61.4068 16.973C61.0192 16.8199 60.6039 16.7551 60.1895 16.7831C59.3082 16.7595 58.4504 17.0773 57.7861 17.6735C57.1218 18.2697 56.6994 19.1008 56.6028 20.0021H63.2371Z" fill="var(--fill-0, #C31C4A)"/>
<path id="Vector_4" d="M100.148 13.4674C101.093 13.4674 101.859 12.6793 101.859 11.7072C101.859 10.735 101.093 9.94696 100.148 9.94696C99.2028 9.94696 98.4366 10.735 98.4366 11.7072C98.4366 12.6793 99.2028 13.4674 100.148 13.4674Z" fill="var(--fill-0, #8CB7C9)"/>
<path id="Vector_5" d="M77.5726 28.4035C76.7392 28.432 75.9118 28.249 75.1635 27.8705C74.4153 27.492 73.7693 26.9297 73.2825 26.2333V26.2333V33.0572C73.3101 33.2925 73.2889 33.5311 73.2202 33.7574C73.1515 33.9836 73.0369 34.1923 72.8841 34.3696C72.7312 34.547 72.5435 34.689 72.3333 34.7862C72.1232 34.8834 71.8954 34.9337 71.665 34.9337C71.4345 34.9337 71.2067 34.8834 70.9966 34.7862C70.7864 34.689 70.5987 34.547 70.4459 34.3696C70.293 34.1923 70.1784 33.9836 70.1097 33.7574C70.0411 33.5311 70.0198 33.2925 70.0474 33.0572V16.1783C70.0204 15.9529 70.0402 15.7241 70.1056 15.5072C70.171 15.2902 70.2805 15.09 70.4268 14.9199C70.5731 14.7497 70.7528 14.6135 70.9541 14.5202C71.1555 14.4268 71.3738 14.3786 71.5946 14.3786C71.8155 14.3786 72.0338 14.4268 72.2351 14.5202C72.4364 14.6135 72.6162 14.7497 72.7625 14.9199C72.9088 15.09 73.0182 15.2902 73.0836 15.5072C73.149 15.7241 73.1689 15.9529 73.1419 16.1783V16.5159H73.2239C73.7247 15.7829 74.3982 15.1926 75.1814 14.8004C75.9645 14.4082 76.8316 14.2269 77.7015 14.2734C81.3937 14.2734 83.9842 17.3237 83.9842 21.2661C83.9842 25.2085 81.511 28.4035 77.5726 28.4035ZM76.9279 17.0223C75.8685 17.0846 74.8757 17.574 74.1648 18.3842C73.4539 19.1944 73.0821 20.2602 73.1301 21.3505C73.1049 21.8883 73.1833 22.426 73.3608 22.9326C73.5382 23.4392 73.8112 23.9047 74.1641 24.3024C74.517 24.7001 74.9429 25.0222 75.4172 25.2501C75.8915 25.478 76.4049 25.6073 76.9279 25.6305C77.4533 25.6112 77.9694 25.4823 78.4449 25.2516C78.9203 25.0209 79.3453 24.6932 79.6939 24.2885C80.0425 23.8837 80.3074 23.4102 80.4727 22.8969C80.638 22.3836 80.7001 21.8411 80.6553 21.3023C80.7003 20.7659 80.6379 20.2257 80.4722 19.7151C80.3064 19.2044 80.0407 18.7341 79.6915 18.3331C79.3423 17.9321 78.9169 17.6089 78.4416 17.3835C77.9663 17.158 77.4511 17.0351 76.9279 17.0223V17.0223Z" fill="var(--fill-0, #C31C4A)"/>
<path id="Vector_6" d="M92.5987 28.2839C89.176 28.2839 88.4141 26.1258 88.4141 23.5698V17.3608H87.3709C87.1905 17.3785 87.0084 17.3572 86.8365 17.2983C86.6645 17.2394 86.5064 17.1442 86.3723 17.0187C86.2382 16.8933 86.131 16.7404 86.0577 16.5699C85.9844 16.3994 85.9465 16.2151 85.9465 16.0286C85.9465 15.8422 85.9844 15.6578 86.0577 15.4873C86.131 15.3168 86.2382 15.1639 86.3723 15.0385C86.5064 14.913 86.6645 14.8178 86.8365 14.7589C87.0084 14.7 87.1905 14.6787 87.3709 14.6964H88.4141V12.3936C88.3867 12.1616 88.4075 11.9263 88.4751 11.7031C88.5427 11.48 88.6556 11.2741 88.8062 11.0992C88.9569 10.9242 89.142 10.7842 89.3492 10.6882C89.5564 10.5923 89.781 10.5427 90.0083 10.5427C90.2355 10.5427 90.4601 10.5923 90.6673 10.6882C90.8745 10.7842 91.0596 10.9242 91.2103 11.0992C91.361 11.2741 91.4738 11.48 91.5414 11.7031C91.609 11.9263 91.6298 12.1616 91.6024 12.3936V14.6964H93.6185C93.7989 14.6787 93.9809 14.7 94.1529 14.7589C94.3249 14.8178 94.483 14.913 94.6171 15.0385C94.7512 15.1639 94.8584 15.3168 94.9317 15.4873C95.005 15.6578 95.0429 15.8422 95.0429 16.0286C95.0429 16.2151 95.005 16.3994 94.9317 16.5699C94.8584 16.7404 94.7512 16.8933 94.6171 17.0187C94.483 17.1442 94.3249 17.2394 94.1529 17.2983C93.9809 17.3572 93.7989 17.3785 93.6185 17.3608H91.6375V23.5457C91.6375 24.8478 92.0712 25.5471 92.88 25.5471C93.0089 25.5471 93.1965 25.5471 93.384 25.5471H93.7708C94.0817 25.5471 94.3798 25.6741 94.5997 25.9002C94.8195 26.1263 94.943 26.433 94.943 26.7527C94.9355 27.0077 94.8592 27.2556 94.7226 27.4685C94.586 27.6814 94.3944 27.851 94.1694 27.9583C93.6751 28.183 93.139 28.2941 92.5987 28.2839V28.2839Z" fill="var(--fill-0, #C31C4A)"/>
<path id="Vector_7" d="M100.148 28.2601C99.9176 28.2677 99.6879 28.2233 99.4755 28.1299C99.2631 28.0366 99.0731 27.8965 98.9189 27.7195C98.7648 27.5426 98.6502 27.3331 98.5831 27.1057C98.5161 26.8783 98.4983 26.6386 98.5309 26.4034V16.3002C98.5033 16.0649 98.5245 15.8263 98.5932 15.6C98.6619 15.3738 98.7765 15.1651 98.9293 14.9878C99.0822 14.8104 99.2699 14.6685 99.4801 14.5712C99.6902 14.474 99.918 14.4237 100.148 14.4237C100.379 14.4237 100.607 14.474 100.817 14.5712C101.027 14.6685 101.215 14.8104 101.368 14.9878C101.52 15.1651 101.635 15.3738 101.704 15.6C101.772 15.8263 101.794 16.0649 101.766 16.3002V26.4034C101.799 26.6386 101.781 26.8783 101.714 27.1057C101.647 27.3331 101.532 27.5426 101.378 27.7195C101.224 27.8965 101.034 28.0366 100.821 28.1299C100.609 28.2233 100.379 28.2677 100.148 28.2601Z" fill="var(--fill-0, #C31C4A)"/>
<path id="Vector_8" d="M17.1602 9.67078L1.53551 0.146274C1.38458 0.0755404 1.22078 0.0385565 1.05493 0.0377664C0.916949 0.0361717 0.780035 0.0627512 0.652111 0.115961C0.524188 0.16917 0.407796 0.247954 0.30968 0.347752C0.211565 0.44755 0.133673 0.566378 0.080516 0.697354C0.0273584 0.828331 -8.70845e-06 0.968853 2.07866e-09 1.11078C0.00455389 1.30971 0.0569044 1.50437 0.15238 1.67743L19.1177 34.3983L17.1602 9.67078Z" fill="var(--fill-0, #FF595A)"/>
<path id="Vector_9" d="M22.0017 17.6992C21.7682 17.1728 21.6444 16.602 21.6383 16.0234C21.6435 15.4849 21.7739 14.9555 22.0186 14.4794C22.2633 14.0033 22.6152 13.5943 23.0449 13.2866L17.1842 9.74205L19.1416 34.4455C19.2309 34.6118 19.3614 34.7508 19.52 34.8483C19.6786 34.9457 19.8595 34.9981 20.0442 35.0001C20.2338 34.9999 20.4199 34.9472 20.5828 34.8475C20.7458 34.7478 20.8796 34.6047 20.9702 34.4334L25.2719 25.5599L22.0017 17.6992Z" fill="var(--fill-0, #C31C4A)"/>
<path id="Vector_10" d="M106.654 14.4915C107.275 14.4915 107.872 14.7456 108.311 15.1978C108.751 15.65 108.998 16.2633 108.998 16.9028C108.998 17.5423 108.751 18.1556 108.311 18.6078C107.872 19.06 107.275 19.3141 106.654 19.3141C106.032 19.3141 105.436 19.06 104.996 18.6078C104.556 18.1556 104.309 17.5423 104.309 16.9028C104.309 16.2633 104.556 15.65 104.996 15.1978C105.436 14.7456 106.032 14.4915 106.654 14.4915ZM106.654 18.9644C107.048 18.9644 107.433 18.8442 107.761 18.619C108.088 18.3938 108.344 18.0737 108.495 17.6992C108.645 17.3247 108.685 16.9126 108.608 16.515C108.531 16.1174 108.341 15.7522 108.063 15.4656C107.784 15.1789 107.429 14.9837 107.042 14.9047C106.656 14.8256 106.255 14.8662 105.891 15.0213C105.527 15.1764 105.216 15.4391 104.997 15.7762C104.778 16.1132 104.661 16.5095 104.661 16.9149C104.664 17.4563 104.875 17.9746 105.249 18.3563C105.622 18.7381 106.127 18.9524 106.654 18.9524V18.9644ZM105.704 15.8177C105.698 15.7783 105.701 15.738 105.713 15.7001C105.725 15.6621 105.746 15.6277 105.773 15.5995C105.801 15.5713 105.834 15.5501 105.871 15.5378C105.908 15.5254 105.947 15.5222 105.985 15.5284H106.642C107.134 15.5284 107.626 15.7454 107.626 16.3241C107.628 16.5035 107.566 16.6773 107.451 16.8128C107.337 16.9482 107.178 17.036 107.005 17.0595L107.58 17.9276C107.596 17.9785 107.596 18.0334 107.58 18.0843C107.581 18.117 107.576 18.1496 107.565 18.1803C107.554 18.211 107.537 18.239 107.515 18.2627C107.493 18.2863 107.467 18.3052 107.438 18.3181C107.408 18.3309 107.377 18.3375 107.345 18.3375C107.296 18.3373 107.247 18.3224 107.205 18.2946C107.164 18.2668 107.131 18.2273 107.111 18.1808L106.466 17.1198H106.126V18.1084C106.13 18.1431 106.126 18.1781 106.115 18.2111C106.104 18.2441 106.086 18.2742 106.062 18.2994C106.039 18.3246 106.011 18.3443 105.979 18.3571C105.948 18.3699 105.914 18.3756 105.88 18.3737C105.824 18.3594 105.775 18.3244 105.743 18.2755C105.71 18.2266 105.697 18.1671 105.704 18.1084V15.8177ZM106.56 16.7219C106.829 16.7219 107.146 16.6496 107.146 16.312C107.146 15.9745 106.865 15.9383 106.618 15.9383H106.185V16.7219H106.56Z" fill="var(--fill-0, #C31C4A)"/>
<path id="Vector_11" d="M25.0965 12.5868C25.832 12.5941 26.5455 12.8457 27.1306 13.3041C27.7158 13.7626 28.1411 14.4033 28.3433 15.1307L29.1755 17.3491L36.7476 1.67583C36.8312 1.50786 36.8754 1.32203 36.8765 1.13329C36.8765 0.832725 36.7604 0.544471 36.5538 0.331937C36.3472 0.119403 36.0669 0 35.7747 0H17.5948C17.3025 0 17.0223 0.119403 16.8157 0.331937C16.609 0.544471 16.4929 0.832725 16.4929 1.13329L17.1611 9.66918L23.0218 13.2137C23.6322 12.7858 24.3581 12.5665 25.0965 12.5868V12.5868Z" fill="var(--fill-0, #8CB7C9)"/>
</g>
</svg>
