<svg width="238" height="50" viewBox="0 0 238 50" fill="none" xmlns="http://www.w3.org/2000/svg">
<path fill-rule="evenodd" clip-rule="evenodd" d="M146.023 22.7273C144.245 22.7273 142.803 24.1688 142.803 25.947C142.803 27.7252 144.245 29.1667 146.023 29.1667H158.144C159.922 29.1667 161.364 27.7252 161.364 25.947C161.364 24.1688 159.922 22.7273 158.144 22.7273H146.023ZM148.485 25.947C148.485 27.0976 147.552 28.0303 146.402 28.0303C145.251 28.0303 144.318 27.0976 144.318 25.947C144.318 24.7964 145.251 23.8636 146.402 23.8636C147.552 23.8636 148.485 24.7964 148.485 25.947ZM159.848 25.947C159.848 27.0976 158.916 28.0303 157.765 28.0303C156.615 28.0303 155.682 27.0976 155.682 25.947C155.682 24.7964 156.615 23.8636 157.765 23.8636C158.916 23.8636 159.848 24.7964 159.848 25.947Z" fill="#0072C3"/>
<path d="M0 34.4702H3.0303V22.8535L13.8258 28.005L24.6212 22.8535V34.4703H27.6515V17.803L13.8258 24.5707L0 17.803V34.4702Z" fill="#0072C3"/>
<path d="M89.2045 20.8333H70.0758V17.803H89.2045C92.6563 17.803 95.4545 20.6012 95.4545 24.053C95.4545 27.5048 92.6563 30.303 89.2045 30.303H73.1061V34.4697H70.0758V27.2727H89.2045C90.9827 27.2727 92.4242 25.8312 92.4242 24.053C92.4242 22.2748 90.9827 20.8333 89.2045 20.8333Z" fill="#0072C3"/>
<path d="M38.6364 22.7273C38.6364 21.6813 39.4843 20.8333 40.5303 20.8333H60.2273V17.803H40.5303C37.8107 17.803 35.6061 20.0077 35.6061 22.7273C35.6061 25.4469 37.8107 27.6515 40.5303 27.6515H56.0606C57.1066 27.6515 57.9545 28.4995 57.9545 29.5455C57.9545 30.5914 57.1066 31.4394 56.0606 31.4394H35.6061V34.4697H56.0606C58.7802 34.4697 60.9848 32.265 60.9848 29.5455C60.9848 26.8259 58.7802 24.6212 56.0606 24.6212H40.5303C39.4843 24.6212 38.6364 23.7733 38.6364 22.7273Z" fill="#0072C3"/>
<path fill-rule="evenodd" clip-rule="evenodd" d="M147.727 14.3939C147.727 14.9237 147.51 15.4027 147.159 15.7465V17.803H157.008V15.7465C156.657 15.4027 156.439 14.9237 156.439 14.3939C156.439 13.3479 157.287 12.5 158.333 12.5C159.379 12.5 160.227 13.3479 160.227 14.3939C160.227 14.9237 160.01 15.4027 159.659 15.7465V17.803H160.606C164.162 17.803 167.045 20.686 167.045 24.2424V28.0303C167.045 31.5867 164.162 34.4697 160.606 34.4697H143.561C140.004 34.4697 137.121 31.5867 137.121 28.0303V24.2424C137.121 20.686 140.004 17.803 143.561 17.803H144.508V15.7465C144.157 15.4027 143.939 14.9237 143.939 14.3939C143.939 13.3479 144.787 12.5 145.833 12.5C146.879 12.5 147.727 13.3479 147.727 14.3939ZM143.561 20.8333H160.606C162.489 20.8333 164.015 22.3596 164.015 24.2424V28.0303C164.015 29.9131 162.489 31.4394 160.606 31.4394H143.561C141.678 31.4394 140.152 29.9131 140.152 28.0303V24.2424C140.152 22.3596 141.678 20.8333 143.561 20.8333Z" fill="#001D6C"/>
<path d="M176.326 17.803H184.28V20.8333H176.326V17.803Z" fill="#001D6C"/>
<path d="M199.811 17.803H186.553V34.4697H189.583V20.8333H199.811V17.803Z" fill="#001D6C"/>
<path d="M103.409 17.803H123.864C126.583 17.803 128.788 20.0077 128.788 22.7273C128.788 24.0504 128.266 25.2516 127.417 26.1364C128.266 27.0211 128.788 28.2224 128.788 29.5455C128.788 32.265 126.583 34.4697 123.864 34.4697H103.409V31.4394H123.864C124.91 31.4394 125.758 30.5914 125.758 29.5455C125.758 28.4995 124.91 27.6515 123.864 27.6515H103.409V24.6212H123.864C124.91 24.6212 125.758 23.7733 125.758 22.7273C125.758 21.6813 124.91 20.8333 123.864 20.8333H103.409V17.803Z" fill="#001D6C"/>
<path d="M232.955 14.7727H237.5V19.3182H234.47V20.8333H214.773C213.727 20.8333 212.879 21.6813 212.879 22.7273C212.879 23.7733 213.727 24.6212 214.773 24.6212H230.303C233.023 24.6212 235.227 26.8259 235.227 29.5455C235.227 32.265 233.023 34.4697 230.303 34.4697H209.848V31.4394H230.303C231.349 31.4394 232.197 30.5914 232.197 29.5455C232.197 28.4995 231.349 27.6515 230.303 27.6515H214.773C212.053 27.6515 209.848 25.4469 209.848 22.7273C209.848 20.0077 212.053 17.803 214.773 17.803H232.955V14.7727Z" fill="#001D6C"/>
</svg>
