<svg width="32" height="32" viewBox="0 0 32 32" fill="none" xmlns="http://www.w3.org/2000/svg">
<g clip-path="url(#clip0_12_751)">
<path d="M18.75 17.125C18.675 17.5 18.525 17.825 18.325 18.125C23.25 23.175 26.825 27.325 27.25 27.825C26.75 27.4 22.6 23.825 17.55 18.9C17.25 19.1 16.9 19.25 16.525 19.325C16.5 26.55 16.275 32 16 32C15.725 32 15.5 26.55 15.45 19.3C15.075 19.225 14.725 19.075 14.425 18.875C9.37498 23.8 5.22498 27.375 4.72498 27.8C5.14998 27.3 8.72497 23.15 13.65 18.1C13.45 17.8 13.3 17.45 13.225 17.075C5.69998 17.025 -0.0250244 16.8 -0.0250244 16.525C-0.0250244 16.25 5.69998 16.025 13.225 15.975C13.3 15.6 13.45 15.25 13.65 14.95C8.72497 9.9 5.14998 5.75 4.72498 5.25C5.22498 5.675 9.37498 9.25 14.425 14.175C14.725 13.975 15.075 13.825 15.425 13.75C15.475 6.025 15.725 0 16 0C16.275 0 16.525 6.025 16.55 13.8C16.925 13.875 17.25 14.025 17.55 14.225C22.6 9.3 26.75 5.725 27.25 5.3C26.825 5.8 23.25 9.95 18.325 15C18.525 15.3 18.675 15.65 18.75 16C26.275 16.05 32 16.275 32 16.55C32 16.825 26.275 17.075 18.75 17.125Z" fill="#888BF8"/>
</g>
<defs>
<clipPath id="clip0_12_751">
<rect width="32" height="32" fill="white"/>
</clipPath>
</defs>
</svg>
