<svg width="32" height="32" viewBox="0 0 32 32" fill="none" xmlns="http://www.w3.org/2000/svg">
<g clip-path="url(#clip0_12_793)">
<path d="M16 0L17.925 10.25C18 10.6 18.4 10.75 18.675 10.55L28.7 3.275L21.45 13.3C21.25 13.575 21.4 13.975 21.75 14.05L32 15.975L21.75 17.9C21.4 17.975 21.25 18.375 21.45 18.65L28.725 28.675L18.7 21.45C18.425 21.25 18.025 21.4 17.95 21.75L16 32L14.075 21.75C14 21.4 13.6 21.25 13.325 21.45L3.3 28.725L10.575 18.7C10.775 18.425 10.625 18.025 10.275 17.95L0 16L10.25 14.075C10.6 14 10.75 13.6 10.55 13.325L3.275 3.275L13.3 10.55C13.575 10.75 13.975 10.6 14.05 10.25L16 0Z" fill="#9581F8"/>
</g>
<defs>
<clipPath id="clip0_12_793">
<rect width="32" height="32" fill="white"/>
</clipPath>
</defs>
</svg>
