<svg width="210" height="36" viewBox="0 0 210 36" fill="none" xmlns="http://www.w3.org/2000/svg">
<path d="M0 4C0 1.79086 1.79086 0 4 0H206C208.209 0 210 1.79086 210 4V32C210 34.2091 208.209 36 206 36H4C1.79086 36 0 34.2091 0 32V4Z" fill="#D9ECFF"/>
<path d="M18.398 27C18.1927 27 18.002 26.9487 17.826 26.846C17.65 26.7287 17.562 26.56 17.562 26.34V11.556C17.562 11.336 17.6573 11.1747 17.848 11.072C18.0533 10.9693 18.266 10.918 18.486 10.918C18.7207 10.918 18.9333 10.9693 19.124 11.072C19.3147 11.1747 19.41 11.336 19.41 11.556V25.328H25.438C25.6433 25.328 25.79 25.416 25.878 25.592C25.9807 25.7533 26.032 25.944 26.032 26.164C26.032 26.3693 25.9807 26.56 25.878 26.736C25.79 26.912 25.6433 27 25.438 27H18.398ZM28.777 27C28.557 27 28.3443 26.9487 28.139 26.846C27.9483 26.7287 27.853 26.56 27.853 26.34V11.556C27.853 11.336 27.9483 11.1747 28.139 11.072C28.3443 10.9693 28.557 10.918 28.777 10.918C29.0117 10.918 29.2243 10.9693 29.415 11.072C29.6057 11.1747 29.701 11.336 29.701 11.556V26.34C29.701 26.56 29.6057 26.7287 29.415 26.846C29.2243 26.9487 29.0117 27 28.777 27ZM33.7614 27C33.5414 27 33.3287 26.9487 33.1234 26.846C32.9327 26.7287 32.8374 26.56 32.8374 26.34V11.82C32.8374 11.4827 32.9327 11.248 33.1234 11.116C33.3287 10.984 33.5414 10.918 33.7614 10.918C33.9961 10.918 34.1941 10.962 34.3554 11.05C34.5314 11.138 34.6854 11.27 34.8174 11.446C34.9641 11.6073 35.1034 11.82 35.2354 12.084L38.7114 18.706L42.1874 12.084C42.3341 11.82 42.4734 11.6073 42.6054 11.446C42.7521 11.27 42.9061 11.138 43.0674 11.05C43.2434 10.962 43.4414 10.918 43.6614 10.918C43.9107 10.918 44.1234 10.984 44.2994 11.116C44.4901 11.248 44.5854 11.4827 44.5854 11.82V26.34C44.5854 26.56 44.4901 26.7287 44.2994 26.846C44.1087 26.9487 43.8961 27 43.6614 27C43.4267 27 43.2141 26.9487 43.0234 26.846C42.8327 26.7287 42.7374 26.56 42.7374 26.34V14.79L39.3934 21.038C39.2907 21.214 39.1807 21.346 39.0634 21.434C38.9461 21.5073 38.8214 21.544 38.6894 21.544C38.5867 21.544 38.4694 21.5073 38.3374 21.434C38.2201 21.3607 38.1101 21.2287 38.0074 21.038L34.6854 14.702V26.34C34.6854 26.56 34.5901 26.7287 34.3994 26.846C34.2087 26.9487 33.9961 27 33.7614 27ZM48.6501 27C48.4301 27 48.2174 26.9487 48.0121 26.846C47.8214 26.7287 47.7261 26.56 47.7261 26.34V11.556C47.7261 11.336 47.8214 11.1747 48.0121 11.072C48.2174 10.9693 48.4301 10.918 48.6501 10.918C48.8847 10.918 49.0974 10.9693 49.2881 11.072C49.4787 11.1747 49.5741 11.336 49.5741 11.556V26.34C49.5741 26.56 49.4787 26.7287 49.2881 26.846C49.0974 26.9487 48.8847 27 48.6501 27ZM56.5384 27C56.3038 27 56.0911 26.9487 55.9004 26.846C55.7098 26.7287 55.6144 26.56 55.6144 26.34V12.634H52.0504C51.8598 12.634 51.7058 12.546 51.5884 12.37C51.4711 12.194 51.4124 11.9887 51.4124 11.754C51.4124 11.5487 51.4638 11.358 51.5664 11.182C51.6691 11.006 51.8304 10.918 52.0504 10.918H61.0264C61.2464 10.918 61.4078 11.006 61.5104 11.182C61.6131 11.358 61.6644 11.5487 61.6644 11.754C61.6644 11.974 61.6131 12.1793 61.5104 12.37C61.4078 12.546 61.2464 12.634 61.0264 12.634H57.4624V26.34C57.4624 26.56 57.3671 26.7287 57.1764 26.846C56.9858 26.9487 56.7731 27 56.5384 27ZM64.3316 27C64.1263 27 63.9356 26.9487 63.7596 26.846C63.5836 26.7287 63.4956 26.56 63.4956 26.34V11.578C63.4956 11.358 63.5836 11.1967 63.7596 11.094C63.9356 10.9767 64.1263 10.918 64.3316 10.918H72.1636C72.3983 10.918 72.5596 11.006 72.6476 11.182C72.7503 11.358 72.8016 11.5413 72.8016 11.732C72.8016 11.952 72.7429 12.15 72.6256 12.326C72.5229 12.502 72.3689 12.59 72.1636 12.59H65.3436V18.178H68.7756C68.9809 18.178 69.1349 18.2587 69.2376 18.42C69.3549 18.5813 69.4136 18.7647 69.4136 18.97C69.4136 19.146 69.3623 19.3147 69.2596 19.476C69.1716 19.6373 69.0103 19.718 68.7756 19.718H65.3436V25.328H72.1636C72.3689 25.328 72.5229 25.416 72.6256 25.592C72.7429 25.7533 72.8016 25.9513 72.8016 26.186C72.8016 26.3767 72.7503 26.56 72.6476 26.736C72.5596 26.912 72.3983 27 72.1636 27H64.3316ZM75.6324 27C75.383 27 75.1777 26.9413 75.0164 26.824C74.8697 26.692 74.7964 26.538 74.7964 26.362V11.556C74.7964 11.38 74.8697 11.2333 75.0164 11.116C75.1777 10.984 75.383 10.918 75.6324 10.918H79.5264C80.421 10.918 81.2277 11.0793 81.9464 11.402C82.665 11.71 83.2297 12.216 83.6404 12.92C84.0657 13.6093 84.2784 14.5407 84.2784 15.714V22.204C84.2784 23.3773 84.0657 24.316 83.6404 25.02C83.2297 25.7093 82.665 26.2153 81.9464 26.538C81.2277 26.846 80.421 27 79.5264 27H75.6324ZM76.6444 25.328H79.5264C80.4357 25.328 81.147 25.0787 81.6604 24.58C82.1737 24.0667 82.4304 23.2747 82.4304 22.204V15.714C82.4304 14.6433 82.1737 13.8587 81.6604 13.36C81.147 12.8467 80.4357 12.59 79.5264 12.59H76.6444V25.328ZM95.4896 27C95.2549 27 95.0423 26.9487 94.8516 26.846C94.6609 26.7287 94.5656 26.56 94.5656 26.34V12.634H91.0016C90.8109 12.634 90.6569 12.546 90.5396 12.37C90.4223 12.194 90.3636 11.9887 90.3636 11.754C90.3636 11.5487 90.4149 11.358 90.5176 11.182C90.6203 11.006 90.7816 10.918 91.0016 10.918H99.9776C100.198 10.918 100.359 11.006 100.462 11.182C100.564 11.358 100.616 11.5487 100.616 11.754C100.616 11.974 100.564 12.1793 100.462 12.37C100.359 12.546 100.198 12.634 99.9776 12.634H96.4136V26.34C96.4136 26.56 96.3183 26.7287 96.1276 26.846C95.9369 26.9487 95.7243 27 95.4896 27ZM103.371 27C103.151 27 102.938 26.9487 102.733 26.846C102.542 26.7287 102.447 26.56 102.447 26.34V11.556C102.447 11.336 102.542 11.1747 102.733 11.072C102.938 10.9693 103.151 10.918 103.371 10.918C103.605 10.918 103.818 10.9693 104.009 11.072C104.199 11.1747 104.295 11.336 104.295 11.556V26.34C104.295 26.56 104.199 26.7287 104.009 26.846C103.818 26.9487 103.605 27 103.371 27ZM108.355 27C108.135 27 107.922 26.9487 107.717 26.846C107.526 26.7287 107.431 26.56 107.431 26.34V11.82C107.431 11.4827 107.526 11.248 107.717 11.116C107.922 10.984 108.135 10.918 108.355 10.918C108.59 10.918 108.788 10.962 108.949 11.05C109.125 11.138 109.279 11.27 109.411 11.446C109.558 11.6073 109.697 11.82 109.829 12.084L113.305 18.706L116.781 12.084C116.928 11.82 117.067 11.6073 117.199 11.446C117.346 11.27 117.5 11.138 117.661 11.05C117.837 10.962 118.035 10.918 118.255 10.918C118.504 10.918 118.717 10.984 118.893 11.116C119.084 11.248 119.179 11.4827 119.179 11.82V26.34C119.179 26.56 119.084 26.7287 118.893 26.846C118.702 26.9487 118.49 27 118.255 27C118.02 27 117.808 26.9487 117.617 26.846C117.426 26.7287 117.331 26.56 117.331 26.34V14.79L113.987 21.038C113.884 21.214 113.774 21.346 113.657 21.434C113.54 21.5073 113.415 21.544 113.283 21.544C113.18 21.544 113.063 21.5073 112.931 21.434C112.814 21.3607 112.704 21.2287 112.601 21.038L109.279 14.702V26.34C109.279 26.56 109.184 26.7287 108.993 26.846C108.802 26.9487 108.59 27 108.355 27ZM123.156 27C122.95 27 122.76 26.9487 122.584 26.846C122.408 26.7287 122.32 26.56 122.32 26.34V11.578C122.32 11.358 122.408 11.1967 122.584 11.094C122.76 10.9767 122.95 10.918 123.156 10.918H130.988C131.222 10.918 131.384 11.006 131.472 11.182C131.574 11.358 131.626 11.5413 131.626 11.732C131.626 11.952 131.567 12.15 131.45 12.326C131.347 12.502 131.193 12.59 130.988 12.59H124.168V18.178H127.6C127.805 18.178 127.959 18.2587 128.062 18.42C128.179 18.5813 128.238 18.7647 128.238 18.97C128.238 19.146 128.186 19.3147 128.084 19.476C127.996 19.6373 127.834 19.718 127.6 19.718H124.168V25.328H130.988C131.193 25.328 131.347 25.416 131.45 25.592C131.567 25.7533 131.626 25.9513 131.626 26.186C131.626 26.3767 131.574 26.56 131.472 26.736C131.384 26.912 131.222 27 130.988 27H123.156ZM142.601 27.132C141.706 27.132 140.9 26.978 140.181 26.67C139.477 26.3473 138.912 25.8413 138.487 25.152C138.076 24.448 137.871 23.5093 137.871 22.336V15.714C137.871 14.5407 138.076 13.6093 138.487 12.92C138.912 12.216 139.477 11.71 140.181 11.402C140.9 11.0793 141.706 10.918 142.601 10.918C143.496 10.918 144.302 11.0793 145.021 11.402C145.74 11.71 146.304 12.216 146.715 12.92C147.14 13.6093 147.353 14.5407 147.353 15.714V22.336C147.353 23.5093 147.14 24.448 146.715 25.152C146.304 25.8413 145.74 26.3473 145.021 26.67C144.302 26.978 143.496 27.132 142.601 27.132ZM142.601 25.46C143.51 25.46 144.222 25.2107 144.735 24.712C145.248 24.1987 145.505 23.4067 145.505 22.336V15.714C145.505 14.6433 145.248 13.8587 144.735 13.36C144.222 12.8467 143.51 12.59 142.601 12.59C141.692 12.59 140.98 12.8467 140.467 13.36C139.968 13.8587 139.719 14.6433 139.719 15.714V22.336C139.719 23.4067 139.968 24.1987 140.467 24.712C140.98 25.2107 141.692 25.46 142.601 25.46ZM151.238 27C151.018 27 150.805 26.9487 150.6 26.846C150.409 26.7433 150.314 26.582 150.314 26.362V11.578C150.314 11.358 150.402 11.1967 150.578 11.094C150.754 10.9767 150.945 10.918 151.15 10.918H158.916C159.136 10.918 159.297 11.006 159.4 11.182C159.503 11.358 159.554 11.5413 159.554 11.732C159.554 11.952 159.495 12.15 159.378 12.326C159.275 12.502 159.121 12.59 158.916 12.59H152.162V18.178H155.616C155.821 18.178 155.975 18.2587 156.078 18.42C156.195 18.5813 156.254 18.7647 156.254 18.97C156.254 19.146 156.203 19.3147 156.1 19.476C155.997 19.6373 155.836 19.718 155.616 19.718H152.162V26.362C152.162 26.582 152.067 26.7433 151.876 26.846C151.685 26.9487 151.473 27 151.238 27ZM162.216 27C161.996 27 161.784 26.9487 161.578 26.846C161.388 26.7433 161.292 26.582 161.292 26.362V11.578C161.292 11.358 161.38 11.1967 161.556 11.094C161.732 10.9767 161.923 10.918 162.128 10.918H169.894C170.114 10.918 170.276 11.006 170.378 11.182C170.481 11.358 170.532 11.5413 170.532 11.732C170.532 11.952 170.474 12.15 170.356 12.326C170.254 12.502 170.1 12.59 169.894 12.59H163.14V18.178H166.594C166.8 18.178 166.954 18.2587 167.056 18.42C167.174 18.5813 167.232 18.7647 167.232 18.97C167.232 19.146 167.181 19.3147 167.078 19.476C166.976 19.6373 166.814 19.718 166.594 19.718H163.14V26.362C163.14 26.582 163.045 26.7433 162.854 26.846C162.664 26.9487 162.451 27 162.216 27ZM173.107 27C172.902 27 172.711 26.9487 172.535 26.846C172.359 26.7287 172.271 26.56 172.271 26.34V11.578C172.271 11.358 172.359 11.1967 172.535 11.094C172.711 10.9767 172.902 10.918 173.107 10.918H180.939C181.174 10.918 181.335 11.006 181.423 11.182C181.526 11.358 181.577 11.5413 181.577 11.732C181.577 11.952 181.518 12.15 181.401 12.326C181.298 12.502 181.144 12.59 180.939 12.59H174.119V18.178H177.551C177.756 18.178 177.91 18.2587 178.013 18.42C178.13 18.5813 178.189 18.7647 178.189 18.97C178.189 19.146 178.138 19.3147 178.035 19.476C177.947 19.6373 177.786 19.718 177.551 19.718H174.119V25.328H180.939C181.144 25.328 181.298 25.416 181.401 25.592C181.518 25.7533 181.577 25.9513 181.577 26.186C181.577 26.3767 181.526 26.56 181.423 26.736C181.335 26.912 181.174 27 180.939 27H173.107ZM192.108 27.044C191.932 27.044 191.77 26.9707 191.624 26.824C191.492 26.6773 191.374 26.5087 191.272 26.318L187.972 19.872H185.42V26.34C185.42 26.56 185.324 26.7287 185.134 26.846C184.943 26.9487 184.73 27 184.496 27C184.276 27 184.063 26.9487 183.858 26.846C183.667 26.7287 183.572 26.56 183.572 26.34V11.556C183.572 11.38 183.63 11.2333 183.748 11.116C183.88 10.9987 184.041 10.9327 184.232 10.918H188.258C189.152 10.918 189.966 11.0573 190.7 11.336C191.448 11.6 192.042 12.0547 192.482 12.7C192.922 13.3307 193.142 14.2033 193.142 15.318C193.142 16.2127 192.995 16.9533 192.702 17.54C192.423 18.1267 192.034 18.5887 191.536 18.926C191.037 19.2487 190.48 19.476 189.864 19.608L193.12 25.79C193.149 25.8487 193.171 25.9073 193.186 25.966C193.2 26.01 193.208 26.054 193.208 26.098C193.208 26.2593 193.149 26.4133 193.032 26.56C192.929 26.7067 192.79 26.824 192.614 26.912C192.452 27 192.284 27.044 192.108 27.044ZM185.42 18.332H188.258C189.167 18.332 189.9 18.112 190.458 17.672C191.015 17.232 191.294 16.4913 191.294 15.45C191.294 14.4087 191.015 13.6753 190.458 13.25C189.9 12.81 189.167 12.59 188.258 12.59H185.42V18.332Z" fill="black"/>
</svg>
