<svg width="44" height="44" viewBox="0 0 44 44" fill="none" xmlns="http://www.w3.org/2000/svg">
<rect x="0.5" y="0.5" width="43" height="43" rx="21.5" stroke="white"/>
<g clip-path="url(#clip0_237_3398)">
<path d="M30.9455 11.5H13.0504C12.1932 11.5 11.5 12.1768 11.5 13.0135V30.9824C11.5 31.8191 12.1932 32.5 13.0504 32.5H30.9455C31.8027 32.5 32.5 31.8191 32.5 30.9865V13.0135C32.5 12.1768 31.8027 11.5 30.9455 11.5ZM17.7303 29.3951H14.6131V19.3709H17.7303V29.3951ZM16.1717 18.0051C15.1709 18.0051 14.3629 17.1971 14.3629 16.2004C14.3629 15.2037 15.1709 14.3957 16.1717 14.3957C17.1684 14.3957 17.9764 15.2037 17.9764 16.2004C17.9764 17.193 17.1684 18.0051 16.1717 18.0051ZM29.3951 29.3951H26.282V24.5225C26.282 23.3617 26.2615 21.8646 24.6619 21.8646C23.0418 21.8646 22.7957 23.132 22.7957 24.4404V29.3951H19.6867V19.3709H22.6727V20.7408H22.7137C23.1279 19.9533 24.1451 19.1207 25.6586 19.1207C28.8127 19.1207 29.3951 21.1961 29.3951 23.8949V29.3951V29.3951Z" fill="white"/>
</g>
<defs>
<clipPath id="clip0_237_3398">
<rect width="21" height="21" fill="white" transform="translate(11.5 11.5)"/>
</clipPath>
</defs>
</svg>
