<svg width="209" height="44" viewBox="0 0 209 44" fill="none" xmlns="http://www.w3.org/2000/svg">
<path fill-rule="evenodd" clip-rule="evenodd" d="M128.5 20C126.935 20 125.667 21.2685 125.667 22.8333C125.667 24.3981 126.935 25.6667 128.5 25.6667H139.167C140.731 25.6667 142 24.3981 142 22.8333C142 21.2685 140.731 20 139.167 20H128.5ZM130.667 22.8333C130.667 23.8459 129.846 24.6667 128.833 24.6667C127.821 24.6667 127 23.8459 127 22.8333C127 21.8208 127.821 21 128.833 21C129.846 21 130.667 21.8208 130.667 22.8333ZM140.667 22.8333C140.667 23.8459 139.846 24.6667 138.833 24.6667C137.821 24.6667 137 23.8459 137 22.8333C137 21.8208 137.821 21 138.833 21C139.846 21 140.667 21.8208 140.667 22.8333Z" fill="#0072C3"/>
<path d="M0 30.3338H2.66667V20.1111L12.1667 24.6444L21.6667 20.1111V30.3338H24.3333V15.6667L12.1667 21.6222L0 15.6667V30.3338Z" fill="#0072C3"/>
<path d="M78.5 18.3333H61.6667V15.6667H78.5C81.5376 15.6667 84 18.1291 84 21.1667C84 24.2042 81.5376 26.6667 78.5 26.6667H64.3333V30.3333H61.6667V24H78.5C80.0648 24 81.3333 22.7315 81.3333 21.1667C81.3333 19.6019 80.0648 18.3333 78.5 18.3333Z" fill="#0072C3"/>
<path d="M34 20C34 19.0795 34.7462 18.3333 35.6667 18.3333H53V15.6667H35.6667C33.2734 15.6667 31.3333 17.6068 31.3333 20C31.3333 22.3932 33.2734 24.3333 35.6667 24.3333H49.3333C50.2538 24.3333 51 25.0795 51 26C51 26.9205 50.2538 27.6667 49.3333 27.6667H31.3333V30.3333H49.3333C51.7266 30.3333 53.6667 28.3932 53.6667 26C53.6667 23.6068 51.7266 21.6667 49.3333 21.6667H35.6667C34.7462 21.6667 34 20.9205 34 20Z" fill="#0072C3"/>
<path fill-rule="evenodd" clip-rule="evenodd" d="M130 12.6667C130 13.1329 129.809 13.5544 129.5 13.8569V15.6667H138.167V13.8569C137.858 13.5544 137.667 13.1329 137.667 12.6667C137.667 11.7462 138.413 11 139.333 11C140.254 11 141 11.7462 141 12.6667C141 13.1329 140.809 13.5544 140.5 13.8569V15.6667H141.333C144.463 15.6667 147 18.2037 147 21.3333V24.6667C147 27.7963 144.463 30.3333 141.333 30.3333H126.333C123.204 30.3333 120.667 27.7963 120.667 24.6667V21.3333C120.667 18.2037 123.204 15.6667 126.333 15.6667H127.167V13.8569C126.858 13.5544 126.667 13.1329 126.667 12.6667C126.667 11.7462 127.413 11 128.333 11C129.254 11 130 11.7462 130 12.6667ZM126.333 18.3333H141.333C142.99 18.3333 144.333 19.6765 144.333 21.3333V24.6667C144.333 26.3235 142.99 27.6667 141.333 27.6667H126.333C124.676 27.6667 123.333 26.3235 123.333 24.6667V21.3333C123.333 19.6765 124.676 18.3333 126.333 18.3333Z" fill="white"/>
<path d="M155.167 15.6667H162.167V18.3333H155.167V15.6667Z" fill="white"/>
<path d="M175.833 15.6667H164.167V30.3333H166.833V18.3333H175.833V15.6667Z" fill="white"/>
<path d="M91 15.6667H109C111.393 15.6667 113.333 17.6068 113.333 20C113.333 21.1643 112.874 22.2214 112.127 23C112.874 23.7786 113.333 24.8357 113.333 26C113.333 28.3932 111.393 30.3333 109 30.3333H91V27.6667H109C109.92 27.6667 110.667 26.9205 110.667 26C110.667 25.0795 109.92 24.3333 109 24.3333H91V21.6667H109C109.92 21.6667 110.667 20.9205 110.667 20C110.667 19.0795 109.92 18.3333 109 18.3333H91V15.6667Z" fill="white"/>
<path d="M205 13H209V17H206.333V18.3333H189C188.08 18.3333 187.333 19.0795 187.333 20C187.333 20.9205 188.08 21.6667 189 21.6667H202.667C205.06 21.6667 207 23.6068 207 26C207 28.3932 205.06 30.3333 202.667 30.3333H184.667V27.6667H202.667C203.587 27.6667 204.333 26.9205 204.333 26C204.333 25.0795 203.587 24.3333 202.667 24.3333H189C186.607 24.3333 184.667 22.3932 184.667 20C184.667 17.6068 186.607 15.6667 189 15.6667H205V13Z" fill="white"/>
</svg>
