<svg width="157" height="36" viewBox="0 0 157 36" fill="none" xmlns="http://www.w3.org/2000/svg">
<path d="M0 4C0 1.79086 1.79086 0 4 0H153C155.209 0 157 1.79086 157 4V32C157 34.2091 155.209 36 153 36H4C1.79086 36 0 34.2091 0 32V4Z" fill="#D9ECFF"/>
<path d="M18.486 27C18.266 27 18.0533 26.9487 17.848 26.846C17.6573 26.7433 17.562 26.582 17.562 26.362V11.578C17.562 11.358 17.65 11.1967 17.826 11.094C18.002 10.9767 18.1927 10.918 18.398 10.918H26.164C26.384 10.918 26.5453 11.006 26.648 11.182C26.7507 11.358 26.802 11.5413 26.802 11.732C26.802 11.952 26.7433 12.15 26.626 12.326C26.5233 12.502 26.3693 12.59 26.164 12.59H19.41V18.178H22.864C23.0693 18.178 23.2233 18.2587 23.326 18.42C23.4433 18.5813 23.502 18.7647 23.502 18.97C23.502 19.146 23.4507 19.3147 23.348 19.476C23.2453 19.6373 23.084 19.718 22.864 19.718H19.41V26.362C19.41 26.582 19.3147 26.7433 19.124 26.846C18.9333 26.9487 18.7207 27 18.486 27ZM32.7298 27.132C31.8351 27.132 31.0285 26.978 30.3098 26.67C29.6058 26.3473 29.0411 25.8413 28.6158 25.152C28.2051 24.448 27.9998 23.5093 27.9998 22.336V15.714C27.9998 14.5407 28.2051 13.6093 28.6158 12.92C29.0411 12.216 29.6058 11.71 30.3098 11.402C31.0285 11.0793 31.8351 10.918 32.7298 10.918C33.6245 10.918 34.4311 11.0793 35.1498 11.402C35.8685 11.71 36.4331 12.216 36.8438 12.92C37.2691 13.6093 37.4818 14.5407 37.4818 15.714V22.336C37.4818 23.5093 37.2691 24.448 36.8438 25.152C36.4331 25.8413 35.8685 26.3473 35.1498 26.67C34.4311 26.978 33.6245 27.132 32.7298 27.132ZM32.7298 25.46C33.6391 25.46 34.3505 25.2107 34.8638 24.712C35.3771 24.1987 35.6338 23.4067 35.6338 22.336V15.714C35.6338 14.6433 35.3771 13.8587 34.8638 13.36C34.3505 12.8467 33.6391 12.59 32.7298 12.59C31.8205 12.59 31.1091 12.8467 30.5958 13.36C30.0971 13.8587 29.8478 14.6433 29.8478 15.714V22.336C29.8478 23.4067 30.0971 24.1987 30.5958 24.712C31.1091 25.2107 31.8205 25.46 32.7298 25.46ZM48.9789 27.044C48.8029 27.044 48.6415 26.9707 48.4949 26.824C48.3629 26.6773 48.2455 26.5087 48.1429 26.318L44.8429 19.872H42.2909V26.34C42.2909 26.56 42.1955 26.7287 42.0049 26.846C41.8142 26.9487 41.6015 27 41.3669 27C41.1469 27 40.9342 26.9487 40.7289 26.846C40.5382 26.7287 40.4429 26.56 40.4429 26.34V11.556C40.4429 11.38 40.5015 11.2333 40.6189 11.116C40.7509 10.9987 40.9122 10.9327 41.1029 10.918H45.1289C46.0235 10.918 46.8375 11.0573 47.5709 11.336C48.3189 11.6 48.9129 12.0547 49.3529 12.7C49.7929 13.3307 50.0129 14.2033 50.0129 15.318C50.0129 16.2127 49.8662 16.9533 49.5729 17.54C49.2942 18.1267 48.9055 18.5887 48.4069 18.926C47.9082 19.2487 47.3509 19.476 46.7349 19.608L49.9909 25.79C50.0202 25.8487 50.0422 25.9073 50.0569 25.966C50.0715 26.01 50.0789 26.054 50.0789 26.098C50.0789 26.2593 50.0202 26.4133 49.9029 26.56C49.8002 26.7067 49.6609 26.824 49.4849 26.912C49.3235 27 49.1549 27.044 48.9789 27.044ZM42.2909 18.332H45.1289C46.0382 18.332 46.7715 18.112 47.3289 17.672C47.8862 17.232 48.1649 16.4913 48.1649 15.45C48.1649 14.4087 47.8862 13.6753 47.3289 13.25C46.7715 12.81 46.0382 12.59 45.1289 12.59H42.2909V18.332ZM61.2825 27.132C60.3879 27.132 59.5812 26.978 58.8625 26.67C58.1585 26.3473 57.5939 25.8413 57.1685 25.152C56.7579 24.448 56.5525 23.5093 56.5525 22.336V15.714C56.5525 14.5407 56.7579 13.6093 57.1685 12.92C57.5939 12.216 58.1585 11.71 58.8625 11.402C59.5812 11.0793 60.3879 10.918 61.2825 10.918C62.1772 10.918 62.9839 11.0793 63.7025 11.402C64.4212 11.71 64.9859 12.216 65.3965 12.92C65.8219 13.6093 66.0345 14.5407 66.0345 15.714V22.336C66.0345 23.5093 65.8219 24.448 65.3965 25.152C64.9859 25.8413 64.4212 26.3473 63.7025 26.67C62.9839 26.978 62.1772 27.132 61.2825 27.132ZM61.2825 25.46C62.1919 25.46 62.9032 25.2107 63.4165 24.712C63.9299 24.1987 64.1865 23.4067 64.1865 22.336V15.714C64.1865 14.6433 63.9299 13.8587 63.4165 13.36C62.9032 12.8467 62.1919 12.59 61.2825 12.59C60.3732 12.59 59.6619 12.8467 59.1485 13.36C58.6499 13.8587 58.4005 14.6433 58.4005 15.714V22.336C58.4005 23.4067 58.6499 24.1987 59.1485 24.712C59.6619 25.2107 60.3732 25.46 61.2825 25.46ZM69.9196 27C69.6996 27 69.4869 26.9487 69.2816 26.846C69.0909 26.7287 68.9956 26.56 68.9956 26.34V11.556C68.9956 11.3213 69.0909 11.16 69.2816 11.072C69.4869 10.9693 69.6996 10.918 69.9196 10.918C70.1543 10.918 70.3523 10.962 70.5136 11.05C70.6749 11.138 70.8216 11.27 70.9536 11.446C71.0856 11.6073 71.2176 11.82 71.3496 12.084L76.8056 22.798V11.556C76.8056 11.336 76.9009 11.1747 77.0916 11.072C77.2969 10.9693 77.5096 10.918 77.7296 10.918C77.9643 10.918 78.1769 10.9693 78.3676 11.072C78.5583 11.1747 78.6536 11.336 78.6536 11.556V26.34C78.6536 26.56 78.5583 26.7287 78.3676 26.846C78.1769 26.9487 77.9643 27 77.7296 27C77.4949 27 77.2749 26.9193 77.0696 26.758C76.8789 26.5967 76.7176 26.3987 76.5856 26.164L70.8436 15.098V26.34C70.8436 26.56 70.7483 26.7287 70.5576 26.846C70.3669 26.9487 70.1543 27 69.9196 27ZM82.6363 27C82.4309 27 82.2403 26.9487 82.0643 26.846C81.8883 26.7287 81.8003 26.56 81.8003 26.34V11.556C81.8003 11.336 81.8956 11.1747 82.0863 11.072C82.2916 10.9693 82.5043 10.918 82.7243 10.918C82.9589 10.918 83.1716 10.9693 83.3623 11.072C83.5529 11.1747 83.6483 11.336 83.6483 11.556V25.328H89.6763C89.8816 25.328 90.0283 25.416 90.1163 25.592C90.2189 25.7533 90.2703 25.944 90.2703 26.164C90.2703 26.3693 90.2189 26.56 90.1163 26.736C90.0283 26.912 89.8816 27 89.6763 27H82.6363ZM94.4498 27C94.2298 27 94.0171 26.9487 93.8118 26.846C93.6211 26.7287 93.5258 26.56 93.5258 26.34V20.774C93.5258 20.686 93.5111 20.6127 93.4818 20.554L88.9278 12.062C88.8984 11.9887 88.8764 11.9227 88.8618 11.864C88.8471 11.7907 88.8398 11.732 88.8398 11.688C88.8398 11.5413 88.8984 11.4093 89.0158 11.292C89.1331 11.1747 89.2724 11.0867 89.4338 11.028C89.6098 10.9547 89.7784 10.918 89.9398 10.918C90.1011 10.918 90.2258 10.962 90.3138 11.05C90.4164 11.1233 90.5118 11.2407 90.5998 11.402L94.4498 18.948L98.3218 11.402C98.4098 11.2407 98.5051 11.1233 98.6078 11.05C98.7104 10.962 98.8351 10.918 98.9818 10.918C99.1431 10.918 99.3044 10.9547 99.4658 11.028C99.6418 11.0867 99.7884 11.1747 99.9058 11.292C100.023 11.4093 100.082 11.5413 100.082 11.688C100.082 11.732 100.074 11.7907 100.06 11.864C100.045 11.9227 100.023 11.9887 99.9938 12.062L95.4398 20.554C95.3958 20.6127 95.3738 20.686 95.3738 20.774V26.34C95.3738 26.56 95.2784 26.7287 95.0878 26.846C94.8971 26.9487 94.6844 27 94.4498 27ZM110.866 28.144C110.661 28.144 110.485 28.0853 110.338 27.968C110.192 27.8653 110.118 27.7407 110.118 27.594V26.978C109.224 26.9633 108.424 26.8167 107.72 26.538C107.016 26.2447 106.459 25.8927 106.048 25.482C105.638 25.0713 105.432 24.6607 105.432 24.25C105.432 24.0447 105.491 23.8247 105.608 23.59C105.726 23.3407 105.88 23.1353 106.07 22.974C106.261 22.798 106.466 22.71 106.686 22.71C106.892 22.71 107.097 22.7833 107.302 22.93C107.508 23.0767 107.735 23.2527 107.984 23.458C108.234 23.6633 108.527 23.854 108.864 24.03C109.216 24.1913 109.634 24.3013 110.118 24.36V19.982C109.62 19.7913 109.114 19.586 108.6 19.366C108.102 19.146 107.64 18.8747 107.214 18.552C106.804 18.2293 106.466 17.826 106.202 17.342C105.953 16.858 105.828 16.264 105.828 15.56C105.828 14.856 105.946 14.2547 106.18 13.756C106.415 13.2427 106.73 12.8173 107.126 12.48C107.537 12.1427 107.999 11.8787 108.512 11.688C109.026 11.4827 109.561 11.3433 110.118 11.27V10.654C110.118 10.5073 110.192 10.3827 110.338 10.28C110.485 10.1627 110.661 10.104 110.866 10.104C111.042 10.104 111.204 10.1627 111.35 10.28C111.512 10.3827 111.592 10.5073 111.592 10.654V11.226C111.959 11.2407 112.355 11.2847 112.78 11.358C113.22 11.4167 113.631 11.512 114.012 11.644C114.408 11.776 114.731 11.952 114.98 12.172C115.244 12.3773 115.376 12.6413 115.376 12.964C115.376 13.1253 115.332 13.3307 115.244 13.58C115.156 13.8147 115.032 14.0273 114.87 14.218C114.709 14.394 114.489 14.482 114.21 14.482C114.005 14.482 113.792 14.4233 113.572 14.306C113.367 14.1887 113.11 14.064 112.802 13.932C112.509 13.7853 112.106 13.6973 111.592 13.668V17.54C112.091 17.716 112.582 17.9213 113.066 18.156C113.565 18.3907 114.012 18.684 114.408 19.036C114.819 19.388 115.149 19.828 115.398 20.356C115.648 20.8693 115.772 21.5 115.772 22.248C115.772 23.5973 115.384 24.668 114.606 25.46C113.844 26.2373 112.839 26.7213 111.592 26.912V27.594C111.592 27.7407 111.512 27.8653 111.35 27.968C111.204 28.0853 111.042 28.144 110.866 28.144ZM111.438 24.338C111.922 24.2353 112.311 24.0373 112.604 23.744C112.912 23.4507 113.066 23.0473 113.066 22.534C113.066 22.1673 112.993 21.8667 112.846 21.632C112.714 21.3827 112.524 21.17 112.274 20.994C112.025 20.8033 111.746 20.642 111.438 20.51V24.338ZM110.294 17.056V13.734C109.928 13.778 109.612 13.8733 109.348 14.02C109.084 14.152 108.879 14.328 108.732 14.548C108.6 14.7533 108.534 14.9953 108.534 15.274C108.534 15.582 108.608 15.846 108.754 16.066C108.901 16.286 109.106 16.4767 109.37 16.638C109.649 16.7847 109.957 16.924 110.294 17.056ZM122.269 27.132C121.389 27.132 120.634 27.0147 120.003 26.78C119.372 26.5307 118.852 26.208 118.441 25.812C118.03 25.416 117.73 24.9833 117.539 24.514C117.348 24.03 117.253 23.5607 117.253 23.106C117.253 22.6513 117.363 22.3433 117.583 22.182C117.818 22.006 118.155 21.918 118.595 21.918C118.991 21.918 119.336 21.9913 119.629 22.138C119.937 22.27 120.091 22.556 120.091 22.996C120.091 23.3333 120.194 23.6267 120.399 23.876C120.604 24.1107 120.876 24.294 121.213 24.426C121.55 24.558 121.932 24.624 122.357 24.624C123.09 24.624 123.67 24.4187 124.095 24.008C124.52 23.5973 124.733 22.952 124.733 22.072V19.696C124.366 20.1213 123.926 20.4147 123.413 20.576C122.914 20.7373 122.379 20.818 121.807 20.818C120.971 20.818 120.208 20.6787 119.519 20.4C118.83 20.1213 118.28 19.652 117.869 18.992C117.458 18.332 117.253 17.4227 117.253 16.264V15.978C117.253 14.746 117.48 13.7633 117.935 13.03C118.39 12.282 119.006 11.7467 119.783 11.424C120.56 11.0867 121.433 10.918 122.401 10.918C123.369 10.918 124.242 11.0867 125.019 11.424C125.811 11.7467 126.434 12.282 126.889 13.03C127.358 13.7633 127.593 14.746 127.593 15.978V22.072C127.593 23.304 127.351 24.294 126.867 25.042C126.398 25.7753 125.76 26.3107 124.953 26.648C124.161 26.9707 123.266 27.132 122.269 27.132ZM122.423 18.574C123.127 18.574 123.684 18.398 124.095 18.046C124.52 17.6793 124.733 17.0853 124.733 16.264V15.78C124.733 14.9 124.528 14.262 124.117 13.866C123.706 13.47 123.134 13.272 122.401 13.272C121.682 13.272 121.118 13.47 120.707 13.866C120.311 14.262 120.113 14.9 120.113 15.78V16.066C120.113 16.9753 120.311 17.6207 120.707 18.002C121.118 18.3833 121.69 18.574 122.423 18.574ZM134.365 27.132C133.485 27.132 132.729 27.0147 132.099 26.78C131.468 26.5307 130.947 26.208 130.537 25.812C130.126 25.416 129.825 24.9833 129.635 24.514C129.444 24.03 129.349 23.5607 129.349 23.106C129.349 22.6513 129.459 22.3433 129.679 22.182C129.913 22.006 130.251 21.918 130.691 21.918C131.087 21.918 131.431 21.9913 131.725 22.138C132.033 22.27 132.187 22.556 132.187 22.996C132.187 23.3333 132.289 23.6267 132.495 23.876C132.7 24.1107 132.971 24.294 133.309 24.426C133.646 24.558 134.027 24.624 134.453 24.624C135.186 24.624 135.765 24.4187 136.191 24.008C136.616 23.5973 136.829 22.952 136.829 22.072V19.696C136.462 20.1213 136.022 20.4147 135.509 20.576C135.01 20.7373 134.475 20.818 133.903 20.818C133.067 20.818 132.304 20.6787 131.615 20.4C130.925 20.1213 130.375 19.652 129.965 18.992C129.554 18.332 129.349 17.4227 129.349 16.264V15.978C129.349 14.746 129.576 13.7633 130.031 13.03C130.485 12.282 131.101 11.7467 131.879 11.424C132.656 11.0867 133.529 10.918 134.497 10.918C135.465 10.918 136.337 11.0867 137.115 11.424C137.907 11.7467 138.53 12.282 138.985 13.03C139.454 13.7633 139.689 14.746 139.689 15.978V22.072C139.689 23.304 139.447 24.294 138.963 25.042C138.493 25.7753 137.855 26.3107 137.049 26.648C136.257 26.9707 135.362 27.132 134.365 27.132ZM134.519 18.574C135.223 18.574 135.78 18.398 136.191 18.046C136.616 17.6793 136.829 17.0853 136.829 16.264V15.78C136.829 14.9 136.623 14.262 136.213 13.866C135.802 13.47 135.23 13.272 134.497 13.272C133.778 13.272 133.213 13.47 132.803 13.866C132.407 14.262 132.209 14.9 132.209 15.78V16.066C132.209 16.9753 132.407 17.6207 132.803 18.002C133.213 18.3833 133.785 18.574 134.519 18.574Z" fill="black"/>
</svg>
