<svg width="48" height="48" viewBox="0 0 48 48" fill="none" xmlns="http://www.w3.org/2000/svg">
<rect x="0.5" y="0.5" width="47" height="47" rx="23.5" stroke="#FFCC01"/>
<path d="M26.0438 26.28C26.6038 26.3733 27.0905 26.5867 27.5038 26.92C27.9172 27.24 28.2372 27.6533 28.4638 28.16C28.7038 28.6667 28.8238 29.2267 28.8238 29.84C28.8238 30.6667 28.6105 31.3867 28.1838 32C27.7572 32.6133 27.1505 33.0867 26.3638 33.42C25.5905 33.7667 24.6772 33.94 23.6238 33.94C22.6105 33.94 21.7105 33.7733 20.9238 33.44C20.1505 33.12 19.5038 32.6467 18.9838 32.02L20.5038 30.12C20.8505 30.5467 21.2638 30.88 21.7438 31.12C22.2372 31.3733 22.8372 31.5 23.5438 31.5C24.3572 31.5 24.9772 31.3333 25.4038 31C25.8305 30.68 26.0438 30.1933 26.0438 29.54C26.0438 28.8467 25.7972 28.3133 25.3038 27.94C24.8105 27.5667 24.0638 27.38 23.0638 27.38H22.5038V25.38H23.1238C23.9372 25.38 24.5705 25.1933 25.0238 24.82C25.4905 24.4467 25.7238 23.98 25.7238 23.42C25.7238 23.06 25.6372 22.76 25.4638 22.52C25.2905 22.28 25.0505 22.1 24.7438 21.98C24.4505 21.86 24.1038 21.8 23.7038 21.8C23.1038 21.8 22.5572 21.94 22.0638 22.22C21.5705 22.5 21.1705 22.8933 20.8638 23.4L19.1838 21.52C19.4638 21.1067 19.8438 20.7533 20.3238 20.46C20.8172 20.1533 21.3772 19.9133 22.0038 19.74C22.6438 19.5667 23.3105 19.48 24.0038 19.48C24.9105 19.48 25.7038 19.6267 26.3838 19.92C27.0772 20.2133 27.6172 20.6267 28.0038 21.16C28.3905 21.6933 28.5838 22.3133 28.5838 23.02C28.5838 23.54 28.4772 24.0333 28.2638 24.5C28.0505 24.9667 27.7505 25.36 27.3638 25.68C26.9905 25.9867 26.5505 26.1867 26.0438 26.28Z" fill="#FFCC01"/>
</svg>
