<svg width="48" height="48" viewBox="0 0 48 48" fill="none" xmlns="http://www.w3.org/2000/svg">
<rect x="0.5" y="0.5" width="47" height="47" rx="23.5" stroke="#FFCC01"/>
<path d="M19.1155 31C19.1155 30.4 19.1621 29.86 19.2555 29.38C19.3488 28.9 19.5088 28.4533 19.7355 28.04C19.9755 27.6267 20.2955 27.24 20.6955 26.88C21.1088 26.5067 21.6288 26.1467 22.2555 25.8C22.8021 25.5067 23.2821 25.2533 23.6955 25.04C24.1088 24.8133 24.4555 24.6067 24.7355 24.42C25.0288 24.2333 25.2488 24.0467 25.3955 23.86C25.5421 23.66 25.6155 23.4333 25.6155 23.18C25.6155 22.9133 25.5421 22.6733 25.3955 22.46C25.2488 22.2333 25.0421 22.0533 24.7755 21.92C24.5088 21.7867 24.1755 21.72 23.7755 21.72C23.4555 21.72 23.1555 21.76 22.8755 21.84C22.6088 21.92 22.3555 22.0333 22.1155 22.18C21.8888 22.3267 21.6755 22.4933 21.4755 22.68C21.2755 22.8533 21.0955 23.04 20.9355 23.24L19.2355 21.28C19.4221 21.0933 19.6688 20.8933 19.9755 20.68C20.2955 20.4533 20.6688 20.2467 21.0955 20.06C21.5355 19.86 22.0155 19.7 22.5355 19.58C23.0688 19.4467 23.6355 19.38 24.2355 19.38C25.1421 19.38 25.9155 19.5267 26.5555 19.82C27.1955 20.1 27.6821 20.4933 28.0155 21C28.3621 21.5067 28.5355 22.1 28.5355 22.78C28.5355 23.2467 28.4488 23.66 28.2755 24.02C28.1021 24.38 27.8821 24.7 27.6155 24.98C27.3488 25.2467 27.0555 25.4867 26.7355 25.7C26.4288 25.9133 26.1288 26.1 25.8355 26.26C25.4221 26.4733 25.0488 26.6733 24.7155 26.86C24.3821 27.0333 24.0888 27.2133 23.8355 27.4C23.5821 27.5733 23.3555 27.7533 23.1555 27.94C22.9688 28.1267 22.8021 28.34 22.6555 28.58H28.7555V31H19.1155Z" fill="#FFCC01"/>
</svg>
