<svg width="50" height="48" viewBox="0 0 50 48" fill="none" xmlns="http://www.w3.org/2000/svg">
<rect x="0.5" y="0.5" width="49" height="47" rx="23.5" stroke="#FFCC01"/>
<path d="M29.4586 28.58V31H21.3386V28.58H24.1786V22.52C24.0586 22.68 23.8719 22.8467 23.6186 23.02C23.3653 23.18 23.0786 23.3333 22.7586 23.48C22.4386 23.6267 22.1186 23.7467 21.7986 23.84C21.4786 23.9333 21.1919 23.98 20.9386 23.98V21.48C21.1786 21.48 21.4653 21.4067 21.7986 21.26C22.1453 21.1 22.4853 20.9133 22.8186 20.7C23.1653 20.4867 23.4586 20.28 23.6986 20.08C23.9519 19.8667 24.1119 19.7 24.1786 19.58H26.9186V28.58H29.4586Z" fill="#FFCC01"/>
</svg>
