<svg width="44" height="44" viewBox="0 0 44 44" fill="none" xmlns="http://www.w3.org/2000/svg">
<rect x="0.5" y="0.5" width="43" height="43" rx="21.5" stroke="white"/>
<g clip-path="url(#clip0_237_3393)">
<path d="M18.1064 30.5314C26.029 30.5314 30.3635 23.966 30.3635 18.2743C30.3635 18.0897 30.3594 17.901 30.3512 17.7165C31.1944 17.1067 31.9221 16.3514 32.5 15.486C31.7147 15.8354 30.8809 16.0636 30.0272 16.1628C30.9261 15.6239 31.5992 14.7774 31.9217 13.7802C31.076 14.2814 30.1511 14.6349 29.1868 14.8257C28.537 14.1353 27.6779 13.6781 26.7422 13.5249C25.8066 13.3718 24.8465 13.5311 24.0105 13.9782C23.1745 14.4254 22.5091 15.1355 22.1171 15.9988C21.7252 16.8621 21.6285 17.8304 21.8421 18.7542C20.1297 18.6682 18.4544 18.2234 16.925 17.4485C15.3955 16.6736 14.046 15.5859 12.9638 14.256C12.4138 15.2042 12.2455 16.3263 12.4932 17.3942C12.7408 18.4621 13.3857 19.3957 14.2969 20.0051C13.6128 19.9834 12.9437 19.7992 12.3449 19.4678V19.5212C12.3443 20.5163 12.6883 21.4809 13.3185 22.2511C13.9487 23.0212 14.8262 23.5494 15.8017 23.7458C15.168 23.9191 14.503 23.9444 13.858 23.8196C14.1333 24.6754 14.6689 25.4239 15.39 25.9607C16.1112 26.4975 16.982 26.7957 17.8808 26.8137C16.3549 28.0124 14.4699 28.6625 12.5295 28.6594C12.1854 28.6589 11.8416 28.6378 11.5 28.5963C13.4712 29.8609 15.7643 30.5326 18.1064 30.5314Z" fill="white"/>
</g>
<defs>
<clipPath id="clip0_237_3393">
<rect width="21" height="21" fill="white" transform="translate(11.5 11.5)"/>
</clipPath>
</defs>
</svg>
