<svg width="44" height="44" viewBox="0 0 44 44" fill="none" xmlns="http://www.w3.org/2000/svg">
<rect x="0.5" y="0.5" width="43" height="43" rx="21.5" stroke="white"/>
<path d="M32.7809 17.5999C32.7809 17.5999 32.566 16.0831 31.9043 15.4171C31.0664 14.5405 30.1297 14.5362 29.7 14.4847C26.6234 14.2612 22.0043 14.2612 22.0043 14.2612H21.9957C21.9957 14.2612 17.3766 14.2612 14.3 14.4847C13.8703 14.5362 12.9336 14.5405 12.0957 15.4171C11.434 16.0831 11.2234 17.5999 11.2234 17.5999C11.2234 17.5999 11 19.3831 11 21.162V22.8292C11 24.6081 11.2191 26.3913 11.2191 26.3913C11.2191 26.3913 11.434 27.9081 12.0914 28.5741C12.9293 29.4507 14.0293 29.4206 14.5191 29.5151C16.2809 29.6827 22 29.7343 22 29.7343C22 29.7343 26.6234 29.7257 29.7 29.5065C30.1297 29.455 31.0664 29.4507 31.9043 28.5741C32.566 27.9081 32.7809 26.3913 32.7809 26.3913C32.7809 26.3913 33 24.6124 33 22.8292V21.162C33 19.3831 32.7809 17.5999 32.7809 17.5999ZM19.727 24.853V18.6698L25.6695 21.7722L19.727 24.853Z" fill="white"/>
</svg>
